<svg xmlns="http://www.w3.org/2000/svg" viewBox="0 0 62.52 50.37"><defs><style>.cls-1{fill:#830303;stroke:#000;stroke-miterlimit:10;stroke-width:0.5px;}</style></defs><title>axes</title><g id="Layer_2" data-name="Layer 2"><g id="Layer_1-2" data-name="Layer 1"><path d="M14,47.21l-2.12,1.07s-.6,2.22,2.06,2.08L15,48.25,51.35,12.07s2.29.34-1.85,4.21c0,0,8.4.72,8.43-8.35,0,0-1.87,3.74-4,2.54,0,0,.3-.55,0-.84L62.52.24,53.1,8.73s-.59-.33-.93,0c0,0-.54-1.87,2.59-4.06,0,0-8.73-.07-8.42,8.4,0,0,4-3.94,4.24-1.76Z"/><path d="M48.54,47,50.66,48s.6,2.22-2.06,2.08L47.51,48,11.17,11.83S8.88,12.17,13,16c0,0-8.4.72-8.43-8.35,0,0,1.87,3.74,4,2.54,0,0-.3-.55,0-.84L0,0,9.43,8.49s.59-.33.93,0c0,0,.54-1.87-2.59-4.06,0,0,8.73-.07,8.42,8.4,0,0-4-3.94-4.24-1.76Z"/><path class="cls-1" d="M13.92,14.57a5,5,0,0,1-2.21,4.91c-2.83,1.93-2.83,4.24-2.83,4.24L9.4,29s3.47-3.22,3.21-4.45,2.83-4.19,2.83-4.19A11.35,11.35,0,0,0,16,16.69Z"/><path class="cls-1" d="M48.8,14.57A5,5,0,0,0,51,19.48c2.83,1.93,2.83,4.24,2.83,4.24L53.32,29s-3.47-3.22-3.21-4.45-2.83-4.19-2.83-4.19a11.35,11.35,0,0,1-.61-3.69Z"/></g></g></svg>