<svg xmlns="http://www.w3.org/2000/svg" viewBox="0 0 45.64 45.66"><defs><style>.cls-1{fill:none;stroke:#000;stroke-miterlimit:10;}</style></defs><title>border</title><g id="Layer_2" data-name="Layer 2"><g id="Layer_1-2" data-name="Layer 1"><path class="cls-1" d="M.77,2.66S2.24,5,1.83,6.43a17.58,17.58,0,0,0-.5,3.28l1.72,1.06L1.91,12s-1.39,1.72,0,3.11,1.15.9,1.15.9L1.92,17.32l.4,3.44,1.15.49-1.88,2-.16,3.6.7,1.64v2.7L3.47,34.6l-.9,5.08L3,42.29s.9,2,2.7,1.56S9.2,45.16,9.2,45.16H16L17.31,43l1.47,1,4.42.57L23.86,42l.82.66L28.53,44l2.29-3.77,3.28,3.28,2.7.16,6.88-.9V39.27s-.41-1-1.06-.41-.16-4.09-.16-4.09,3.44-4.83,2.54-5-1.06-4.09-1.06-4.09l-1.23-5.4.25-3.11,1.15-2-.16-2.37-2.37-5.9L43.1,4S43.18.62,41.46.62H37l-.66,1.8H33.28L30.57,1l-.33,1.56L27,3l-1.15-.41-3.2-1.31L18.7,2.66l.57,1.64-3.68-1L12.48.62,10.59,1.76H8.22L5.76,1.35,4.7,2.75,3.22,2.66,1.75,2.34Z"/></g></g></svg>