<?xml version="1.0" encoding="utf-8"?>
<!-- Generator: Adobe Illustrator 21.1.0, SVG Export Plug-In . SVG Version: 6.00 Build 0)  -->
<svg version="1.1" id="Layer_1" xmlns="http://www.w3.org/2000/svg" xmlns:xlink="http://www.w3.org/1999/xlink" x="0px" y="0px"
	 viewBox="0 0 181.3 181.4" style="enable-background:new 0 0 181.3 181.4;" xml:space="preserve">
<style type="text/css">
	.st0{fill:#FFFFFF;stroke:#CCCCCC;stroke-miterlimit:10;}
	.st1{fill:none;stroke:#CCCCCC;stroke-miterlimit:10;}
</style>
<title>d20background</title>
<path class="st0" d="M123.2,65.2"/>
<path class="st0" d="M123.1,65.1"/>
<path class="st1" d="M123.1,65.1"/>
<path class="st1" d="M123.1,65.1"/>
<g>
	<polyline class="st1" points="96.8,118 113.3,114.4 123,84.2 122.9,83.6 101.5,60.1 85.1,63.6 	"/>
	<path class="st1" d="M80.9,72.3"/>
	<path class="st1" d="M72.7,114.6"/>
	<path class="st0" d="M72.7,114.6"/>
	<path class="st0" d="M72.7,114.6"/>
	<polyline class="st1" points="96.8,118 80.4,121.5 59,98 58.8,97.5 68.6,67.2 85.1,63.6 	"/>
	<polyline class="st1" points="68.6,67.2 77.4,80.9 82.9,106.1 80.4,121.5 	"/>
	<polyline class="st1" points="59,98 82.9,106.1 113.3,114.4 111.7,86.7 101.5,60.1 77.4,80.9 58.8,97.5 	"/>
	<polyline class="st1" points="77.4,80.9 111.7,86.7 123,84.2 	"/>
	<line class="st1" x1="82.9" y1="106.1" x2="111.7" y2="86.7"/>
</g>
<g>
	<path class="st0" d="M69.8,25.7"/>
	<path class="st0" d="M69.8,25.7"/>
	<polyline class="st1" points="54.8,45 64.1,43.1 69.8,26 69.8,25.7 57.7,12.2 48.4,14.1 	"/>
	<path class="st1" d="M48.4,14.1"/>
	<path class="st1" d="M33.2,33.3"/>
	<path class="st0" d="M33.2,33.3"/>
	<path class="st0" d="M33.2,33.3"/>
	<polyline class="st1" points="54.8,45 45.5,46.9 33.5,33.4 33.4,33.1 39.1,16 48.4,14.1 	"/>
	<path class="st1" d="M69.8,25.7"/>
	<polyline class="st1" points="39.1,16 44,23.8 46.9,38.2 45.5,46.9 	"/>
	<polyline class="st1" points="33.5,33.4 46.9,38.2 64.1,43.1 63.4,27.3 57.7,12.2 44,23.8 33.4,33.1 	"/>
	<path class="st1" d="M69.8,25.7"/>
	<polyline class="st1" points="44,23.8 63.4,27.3 69.8,26 	"/>
	<line class="st1" x1="46.9" y1="38.2" x2="63.4" y2="27.3"/>
</g>
<path class="st1" d="M146.2,70.7"/>
<path class="st0" d="M146.2,70.7"/>
<path class="st0" d="M146.2,70.7"/>
<g>
	<path class="st0" d="M146.4,149"/>
	<path class="st0" d="M146.4,149"/>
	<polyline class="st1" points="131.4,168.4 140.7,166.5 146.5,149.3 146.4,149 134.4,135.6 125.1,137.5 	"/>
	<path class="st1" d="M125,137.4"/>
	<polyline class="st1" points="131.4,168.4 122,170.2 110,156.8 110,156.5 115.7,139.3 125.1,137.5 	"/>
	<path class="st1" d="M146.4,149"/>
	<polyline class="st1" points="115.7,139.3 120.6,147.2 123.6,161.6 122,170.2 	"/>
	<polyline class="st1" points="110,156.8 123.6,161.6 140.7,166.5 140,150.7 134.4,135.6 120.6,147.2 110,156.5 	"/>
	<path class="st1" d="M146.4,149"/>
	<polyline class="st1" points="120.6,147.2 140,150.7 146.5,149.3 	"/>
	<line class="st1" x1="123.6" y1="161.6" x2="140" y2="150.7"/>
</g>
<g>
	<path class="st0" d="M137.9,57.7"/>
	<path class="st0" d="M137.8,57.7"/>
	<path class="st1" d="M137.8,57.7"/>
	<path class="st1" d="M137.8,57.7"/>
	<polyline class="st1" points="154.8,67.3 164.1,65.4 169.9,48.2 169.9,48 157.8,34.5 148.5,36.4 	"/>
	<path class="st1" d="M148.5,36.4"/>
	<path class="st1" d="M133.3,55.6"/>
	<path class="st0" d="M133.3,55.6"/>
	<path class="st0" d="M133.3,55.6"/>
	<polyline class="st1" points="154.8,67.3 145.5,69.2 133.5,55.7 133.4,55.4 139.2,38.3 148.5,36.4 	"/>
	<polyline class="st1" points="139.2,38.3 144.1,46.1 147,60.5 145.5,69.2 	"/>
	<polyline class="st1" points="133.5,55.7 147,60.5 164.1,65.4 163.5,49.6 157.8,34.5 144.1,46.1 133.4,55.4 	"/>
	<polyline class="st1" points="144.1,46.1 163.5,49.6 169.9,48.2 	"/>
	<line class="st1" x1="147" y1="60.4" x2="163.5" y2="49.6"/>
</g>
<g>
	<polyline class="st1" points="31.1,119.8 21.7,119 11.3,133.8 11.3,134.2 19.1,150.5 28.5,151.3 	"/>
	<path class="st1" d="M28.6,151.3"/>
	<path class="st1" d="M48.5,137.1"/>
	<path class="st0" d="M48.5,137.1"/>
	<path class="st0" d="M48.5,137.1"/>
	<polyline class="st1" points="31.1,119.8 40.7,120.6 48.4,136.9 48.3,137.2 38,152.1 28.5,151.3 	"/>
	<polyline class="st1" points="38,152.1 35.5,143.1 36.7,128.5 40.7,120.6 	"/>
	<polyline class="st1" points="48.4,136.9 36.7,128.5 21.7,119 17.9,134.4 19.1,150.5 35.5,143.1 48.3,137.2 	"/>
	<polyline class="st1" points="35.5,143.1 17.9,134.4 11.3,133.8 	"/>
	<line class="st1" x1="36.7" y1="128.5" x2="17.9" y2="134.4"/>
</g>
</svg>
