<?xml version="1.0" encoding="utf-8"?>
<!-- Generator: Adobe Illustrator 21.1.0, SVG Export Plug-In . SVG Version: 6.00 Build 0)  -->
<svg version="1.1" id="Layer_1" xmlns="http://www.w3.org/2000/svg" xmlns:xlink="http://www.w3.org/1999/xlink" x="0px" y="0px"
	 viewBox="0 0 564.7 579.8" style="enable-background:new 0 0 564.7 579.8;" xml:space="preserve">
<style type="text/css">
	.st0{fill:#FFD700;}
	.st1{fill:#202020;}
	.st2{fill-rule:evenodd;clip-rule:evenodd;fill:#202020;}
</style>
<title>d20Hero</title>
<g id="Layer_2">
	<g id="Layer_1-2">
		<g>
			<path class="st0" d="M93.6,301.6L310.2,56.8c0,0,104.5,249.5,116.8,331.5L93.6,301.6z"/>
			<g>
				<g>
					<path class="st1" d="M381,247.7l-0.9-2.5C380.3,245.9,380.6,246.8,381,247.7z"/>
					<path class="st1" d="M94.1,306.3c4,3.7,22.3,6.9,28.4,7.4c-4.2-0.3-9.4,0.6-5.5,3.2c4.9,3.5,23.3,6.6,46.9,9.7
						c7.4,0.7,14.4,1.6,21.2,2.6l47,12.2c-25.5-3.4-39.2-1-31.4,4.3c11.1,7.9,37.2,12.7,46,12.9c-4.1,1.9,5,6.2,12.8,8.8
						c10.3,3.4,22.4,6.5,39.1,5c26.6-3.9,43.4-0.1,56.6,1.6c2.5,0.3,4.7,0.7,6.5,1.1l1.8,0.5c6.1,1.7,6,3.6-2.6,2.1
						c-38-4.5-40.5-0.4-39.1,2.9c1.6,3.4,18.1,9.4,30.3,10.8c-3.5,1.9-4.5,3.9-2.4,6.3c1.1,1.2,2.9,2.5,5.7,3.9
						c1.4,0.7,3,1.4,4.8,2.2c0.9,0.4,1.9,0.8,2.9,1.2c0.5,0.2,1.1,0.4,1.6,0.6c0.3,0.1,0.6,0.2,0.8,0.3l0.2,0.1l0.4,0.1
						c0.3,0.1,0.6,0.2,0.9,0.3c12,3.6,22.7,6.4,31.8,8.4c4.5,1,8.6,1.8,12.3,2.4c1.8,0.3,3.6,0.6,5.2,0.8c0.4,0,0.8,0.1,1.2,0.1
						c0.4,0,0.7,0,1.1,0c0.7,0,1.3,0,2,0c10.1-0.1,13.5-2.6,11.9-6.9c5,2.2,11.1,4.1,17.2,5.6c1.5,0.4,3,0.7,4.5,1.1l1.1,0.2
						l0.6,0.1l0.3,0.1l0.1,0l0.1,0c0,0,0,0,0-0.1l-0.4-2.4c-0.6-3.2-1.3-6.4-2.1-9.6c-1.6-6.3-3.5-12.2-5.5-16.9
						c-2-4.7-4.2-8.1-6.3-9.8c-5.7-4.7-9.3-9.2-12.1-13.7c-2.9-4.5-5.1-9.2-7.5-14.1l-3.7-13.2c5.1,8.3,9.3,13.5,11.7,13.8
						c1.2,0.2,1.9-0.8,2.1-3c0.2-2.2-0.1-5.5-1-9.9c-0.4-2.3-1-4.6-1.5-6.9c-0.3-1.1-0.6-2.2-0.9-3.3c-0.2-0.8-0.4-1.6-0.6-2.3
						c-0.8-2.9-1.7-5.7-2.8-8.3c-1.1-2.6-2.3-5.2-3.7-7.6c-1.4-2.5-3-4.9-4.7-7.3c1.2-3.7-0.4-11.9-3.1-18.6
						c-2.7-6.7-6.5-12.1-9.7-10.3c-2.6,0.1-5.1-0.9-7.4-2.6c-7.4-21.2-15.1-42.3-23-63.3c0.1,0.3,0.2,0.5,0.3,0.8l-2.8-7.3
						c-6.7-17.6-13.4-35.2-20.3-52.7L341,123.2l-10.9-27l-11.8-28.9l-6-14.4l-0.8-1.8l-0.2-0.4l-0.1-0.2l0-0.1c0,0-0.1,0.1-0.1,0.1
						l-0.6,0.7l-2.6,2.9l-5.2,5.8l-40.3,45.5L112.8,274.7l1.2,0.8l-0.5,0.6C101.1,291.2,90,306.2,98,303.3
						c5.2-1.9,16.2-16.7,19.5-22c-2.2,3.6-3.8,8.7,0.4,6.3c5.4-2.8,16.5-17.8,29.8-37.4c6.8-10.5,13.5-20.1,20.1-28.8l31.9-36
						c-20.8,27.3-27.7,46-18.2,40.7c12.1-6.3,28.2-27.4,32.3-35.2c-0.1,4.5,7.8-1.6,13.7-7.5c7.7-7.7,15.9-17,22.1-32.6
						c8.6-25.5,19.6-38.7,27-49.7c0.5-0.7,0.9-1.4,1.4-2c0.5-0.6,0.8-1.1,1.2-1.6c0.8-1,1.5-1.8,2.1-2.6c1.3-1.4,2.3-2.2,2.9-2.4
						c1.2-0.4,0.6,1.7-2.2,5.6c-0.5,0.8-1,1.6-1.5,2.4c-0.6,0.9-1.2,1.8-1.8,2.7c-1.1,1.8-2.2,3.5-3.2,5c-2,3.2-3.6,5.9-4.9,8.4
						c-2.7,4.9-4.2,8.4-5,10.9c-1.6,5,0,6.1,1.7,6.3c3.7,0.2,16.6-11.9,23.3-22.2c0.1,3.9,1.4,5.8,4.5,5c0.4-0.1,0.8-0.2,1.2-0.4
						c0.2-0.1,0.5-0.2,0.7-0.3c0.1-0.1,0.2-0.1,0.4-0.2c0.1,0,0.1,0,0.1,0.1c0.4,0.2,0.7,0.4,0.9,0.5c0.6,0.4,0.9,0.7,1.1,1.1
						c0.2,0.4,0.1,0.5,0.1,0c0-0.5,0.1-1.6,0.4-3.3c0.3-1.8,0.8-4.2,1.5-7.2c0.8-3.2,1.4-5.8,2.1-8.5c-0.1,5.6,0.3,7.8,1.6,8.6
						c0.7,0.4,1.6,0.5,2.7,0.3c1.1-0.2,2.5-0.7,4-1.9c4.2-3.5,7-3.9,9.7-2.2c1.3,0.8,2.6,2.1,3.9,3.6c0.3,0.4,0.7,0.8,1,1.2
						c0.3,0.4,0.7,0.9,1.1,1.4c0.7,1,1.5,2,2.3,3c0.2,0.3,0.5,0.6,0.7,1l4.5,11.2c0,0,0,0,0,0c-12.8-16.8-18.1-12.8-14.5-0.3
						c3.5,12.6,8.1,21.8,15.5,30.9c-1.9,7.5,7.8,31.7,14,28c3.3-0.2,6.4,1.2,9.3,3.6c9.1,23.9,18.1,47.8,26.6,71.9
						c-2.3-4-4.1-8.1-5.2-11c10.1,27.8,19.9,55.7,28.6,83.9l1.5,5.1c0.5,1.6,1,3.2,1.4,4.8c0.9,3.2,1.9,6.4,2.8,9.6
						c0.9,3.2,1.8,6.5,2.6,9.7l1.2,4.9c0.4,1.6,0.8,3.3,1.1,4.9l1.1,4.9c0.4,1.6,0.6,3.3,0.9,5l0.4,2.5l0.1,0.6
						c0,0.2,0.2,0.5-0.1,0.4l-1.2-0.3l-4.8-1.2l-19.5-5l-169.8-43.5l-101.8-26.5l-0.8-0.2l-0.1,0.2l0,0.1
						C105.9,303.5,88,300.6,94.1,306.3z"/>
					<path class="st1" d="M374.5,209.6l0.9,2.5C375.2,211.4,374.9,210.6,374.5,209.6z"/>
				</g>
			</g>
		</g>
		<g>
			<g>
				<g>
					<path class="st1" d="M368.4,84l-5.4-2.8C364.5,82,366.3,82.9,368.4,84z"/>
					<path class="st1" d="M433.7,390.9c1.1,2.4,3.6,6.2,6.6,11c3,4.7,6.7,10.3,10.4,16c7.4,11.3,15.2,23,19.2,28.7
						c-5.5-7.8-13.1-16-9.1-6.5c1.6,4,5.2,10.6,10.4,19.3c0.6,1.1,1.3,2.2,2,3.4c0.5,0.9,1.1,1.8,1.7,2.7c1.1,1.7,2.2,3.5,3.4,5.4
						c2.5,3.9,5.3,8.2,8.2,12.8l0.6,0.9l0.1,0.2c0,0.1,0.1,0.2,0,0.2l-0.4,0.3c-0.5,0.4-1,0.8-1.6,1.2c-1,0.9-2.2,1.6-3.3,2.4
						c-0.6,0.4-1.2,0.8-1.8,1.2c-0.6,0.4-1.2,0.7-1.9,1.1c-1.3,0.7-2.5,1.5-3.9,2.2c-1.4,0.7-2.8,1.5-4.2,2.2
						c-1.5,0.7-2.9,1.4-4.4,2.2c-0.8,0.4-1.5,0.8-2.3,1.1c-1,0.4-1.9,0.9-2.9,1.3c-2,0.9-4,1.8-6.1,2.7
						c-15.1,6.7-30.2,12.3-44.9,17.3c-17.7,5.2-35.5,9.9-53.4,14.4l-12.2,3.1l-12,2.9c-8,1.9-16,3.8-24,5.6
						c13.7-3.9,24.9-7.6,33.4-10.7c4.2-1.6,7.8-3,10.8-4.3c1.9-0.8,3.7-1.5,5.3-2.2c1.7-0.7,3.2-1.4,4.6-2c5.5-2.6,8.6-4.5,9.1-5.7
						c0.5-1.2-1.7-1.6-6.8-1.1c-3.6,0.3-7.7,0.9-12.1,1.5c-0.5,0.1-1.1,0.2-1.7,0.3l-0.2,0c-0.1,0-0.1,0-0.1,0l-0.2,0l-0.4,0
						c-0.5,0-1.1,0.1-1.6,0.1c-1.1,0.1-2.2,0.2-3.2,0.4c-4.3,0.6-8.6,1.4-13.1,2.5c-4.5,1.1-9.2,2.5-13.9,3.9c-4.7,1.4-9.3,3-13,4.3
						c2.8-1.4,4.5-2.4,5.5-3.3c1-0.8,1.3-1.5,1.2-1.9c-0.1-0.5-0.5-0.8-1.2-1c-0.3-0.1-0.7-0.1-1.2-0.2c-0.2,0-0.5,0-0.7,0l-0.4,0
						l-0.1,0l0,0c0,0,0,0,0.1-0.1l0.3-0.2c2.1-1.7,4.1-3.3,5.7-4.7c1.6-1.4,2.9-2.8,4-4.1c1-1.3,1.8-2.7,2.4-4.3
						c0.7-1.7,1.4-3.7,2.5-6.6c0.6-2.3,2-5.1,3.9-8.1c0.9-1.5,2-3.1,3.1-4.7c0.6-0.8,1.2-1.6,1.8-2.4l0.5-0.6
						c0.1-0.1,0.2-0.2,0.3-0.4l0.4-0.4c0.5-0.6,1-1.2,1.5-1.7c8-9.2,15.6-17.4,22.8-24.9c14.3-15,26.9-26.9,37.6-37.6
						c4.1-4.1,7.8-7.6,10.9-10.4l3.2-2.9c10.9-9.5,12.8-8.8-1.7,5.1c-61.4,61.5-60.5,66.9-55,65.8c5.9-1.4,37-26.8,56.6-46.6
						c-6.3,12.8,2.5,9.8,37-18.7c1.4-1.2,2.7-2.3,4-3.4c1.3-1.2,2.7-2.3,4-3.4c5.3-3.7,9.6-10.9,10.8-12.2c3.8-5.2,7.2-10,10.4-14.5
						c6.3-9,11-17.1,14.7-23.9c1.8-3.4,3.3-6.5,4.5-9.3c1.2-2.8,2.1-5.3,2.7-7.6c1.2-4.5,1.4-7.8,0.6-10c2.2-2.3,4.6-5.1,7-8.1
						c1.2-1.5,2.5-3.1,3.7-4.8c1.2-1.7,2.4-3.4,3.7-5.2c2.4-3.6,4.9-7.3,7.2-11.1c1.2-1.9,2.3-3.8,3.4-5.7c1.1-1.9,2.1-3.8,3.1-5.7
						c8.1-15,12.9-28.8,10.5-31.6c-1.5-2.2-2.1-4.6-2.3-7.5c-0.2-2.9,0.3-6.1,1.1-9.6c0.4-1.8,0.9-3.6,1.5-5.5c0.6-1.9,1.2-4,1.9-6
						c0.7-2.1,1.4-4.3,2.2-6.5c0.4-1.1,0.8-2.2,1.1-3.4c0.4-1.2,0.7-2.3,1.1-3.5l2.9-6.5c1-2.2,1.8-4.4,2.7-6.6l1.4-3.6
						c0.5-1.2,0.9-2.5,1.3-3.7l1.3-3.7c0.4-1.2,0.9-2.5,1.2-3.7c-0.1,1.2-0.4,2.4-0.6,3.5c-0.2,1.2-0.4,2.3-0.6,3.4
						c-0.4,2.2-0.7,4.3-1.1,6.2c-0.1,0.5-0.2,0.9-0.3,1.4c-0.1,0.5-0.2,0.9-0.2,1.3c-0.1,0.8-0.2,1.5-0.3,2.2
						c-0.2,1.4-0.4,2.7-0.5,3.8c-0.6,4.5-0.2,6.8,0.8,7.2c1,0.4,2.8-1.2,5.1-4.6c0.6-0.9,1.1-1.8,1.7-2.9c0.3-0.5,0.6-1.1,0.9-1.7
						c0.2-0.3,0.3-0.6,0.5-0.9l0.2-0.5c0.1-0.2,0.2-0.4,0.3-0.7c0.8-1.7,1.8-3.7,2.6-5.8c0.8-2.1,1.6-4.4,2.5-6.8
						c0.5-1.3,0.9-2.6,1.4-3.9c0.3-1.3,0.7-2.6,1-3.8c0.6-2.5,1.4-5.1,1.7-7.5c0.4-2.5,0.8-4.9,1.1-7.3c0.2-1.2,0.3-2.4,0.4-3.6
						c0.1-0.6,0.1-1.2,0.2-1.8c0.1-0.2-0.2-0.2-0.2-0.3l-0.4-0.2l-0.7-0.5c-3.9-2.6-7.7-5.2-11.5-7.7l-1.4-0.9
						c-0.5-0.3-0.9-0.6-1.5-0.9c-1.1-0.5-2.2-1.1-3.3-1.6c-2.2-1.1-4.3-2.1-6.5-3.2c-2.2-1-4.3-2.1-6.4-3.1l-1.5-0.7l-1.1-0.5
						l-2.2-1c-2.9-1.3-5.8-2.5-8.7-3.7c-5.8-2.4-11.7-4.6-17.8-6.8c-10.7-10.7-64-38-64.7-30.4c-2.8,1.4-7.2,1.4-12.7,0.4L318.3,50
						l-30.6,3.4c0.6-0.1,1.3-0.2,1.9-0.2l-17.8,2l-201,22.6l26.6,219.5l-64.3,73.1l-8.9,10.1l-2.2,2.5l-1.1,1.3l-0.6,0.6
						c0,0,0,0.1,0,0.1l0.1,0.1l0.1,0.2l0.3,0.3l4.3,5.2c2.9,3.5,5.8,6.9,8.7,10.3l4.4,5.1l4.3,4.9c10.8,12.3,21.9,24.3,33.2,36.1
						c11.3,11.8,23,23.3,34.9,34.5c5.9,5.6,12,11.1,18.1,16.6c6.2,5.4,12.3,10.8,18.6,16c12.6,10.5,25.5,20.6,39,29.9
						c13.5,9.3,27.5,18.1,42.2,25.6l10.2,5.2l-5.7-10c-18.5-32.2-36.5-64.8-54-97.7c-17.4-32.9-34.4-66-49.8-99.8l-1.1,1l-0.7-1.5
						c-9.5-20.2-18.1-40.1-23-53.4c-1.3-3.3-2.2-6.2-3.1-8.5c-0.2-0.6-0.4-1.1-0.6-1.6c-0.2-0.5-0.3-1-0.5-1.4
						c-0.3-0.9-0.6-1.6-0.9-2.2c-1.1-2.2-1.9-1.6-2.2,3.1c0,0.7-0.1,1.7,0,2.6c0.1,1,0.2,2,0.4,3.2c0.2,1.2,0.4,2.4,0.6,3.7
						c0.3,1.3,0.6,2.7,1,4.1c1.5,5.7,3.7,12.2,6.3,18.7c5.1,12.9,11.4,25.5,14.7,31.7c-2.3-4.2-5-8.7-6.8-10.8
						c-1.8-2.2-2.8-2-1.4,3.1c1.6,6.4,7.1,19.3,15.9,36.3c8.7,17,20.6,38.1,34.4,61.3c14.8,24.2,28.7,46.9,41.5,68.3
						c7.9,14.3,15.9,28.5,24,42.6l3.1-3.3c-18-9.1-35-20.2-51.3-32.1c19.7,13.6,37.9,23.1,52.8,29.1l-7.5,8
						c-10.7-15.4-18.7-25.9-23.4-30.7c-4.7-4.8-6.1-3.8-3.2,4c3.3,9.1,8.9,20.8,15.5,33.1l24.3-25.8c-11.5-6.4-23.7-13.5-34.3-20.2
						c-1.3-0.8-2.6-1.6-3.9-2.5c-1.3-0.8-2.5-1.6-3.7-2.4c-2.4-1.5-4.7-3-6.9-4.3c-4.2-2.8-7.9-5.1-10.6-6.7
						c7.9,2.3-8.3-12.1-21.9-24.5c-8.9-8.2-18.5-16.8-29.3-26.3C117,454,104.7,444,90.4,433.2c-11.6-8.2-21.8-16.4-31-24.3
						c-2.3-2-4.5-3.9-6.7-5.9c-0.5-0.5-1.1-1-1.6-1.5l-0.8-0.7l-0.6-0.5c-0.8-0.7-1.6-1.4-2.4-2.1c-3.2-2.8-6.4-5.8-9.4-8.8
						c-0.8-0.8-1.5-1.5-2.3-2.3c-0.4-0.4-0.8-0.8-1.1-1.1l-0.6-0.6l-0.3-0.3c-0.1,0,0-0.1,0-0.1l0.1-0.1c1.1-1.5,2.2-3,3.3-4.5
						c2.2-3,4.5-5.9,6.7-8.8c1.1-1.5,2.2-2.9,3.3-4.3c1.3-1.6,2.6-3.2,3.8-4.8c2.5-3.2,5-6.3,7.3-9.2c19.1-24.4,28.4-30.5,11.4-9.7
						c-6.7,8.6-12.5,16.1-17.6,22.8c-0.6,0.8-1.3,1.7-1.9,2.5l-0.4,0.6l-0.3,0.5c-0.2,0.3-0.4,0.6-0.6,0.9c-0.8,1.2-1.6,2.3-2.3,3.3
						c-1.4,2.1-2.7,4-3.8,5.7c-1.1,1.7-2,3.2-2.8,4.5c-0.1,0.2-0.2,0.3-0.3,0.5c-0.1,0.2-0.3,0.3,0,0.5c0.4,0.3,0.7,0.6,1,0.9
						c0.7,0.6,1.3,1.1,1.9,1.7c2.5,2.1,4.4,3.5,6,4.5c3.2,2,4.9,2.5,6,2.3c1.1-0.2,1.5-1,1.8-1.7c0.2-0.8-0.1-2.2-0.7-3.8
						c-0.3-0.8-0.7-1.6-1.1-2.4c-0.2-0.4-0.4-0.8-0.7-1.3l-0.1-0.2l0-0.1l0,0l0,0l0.4-0.3c0.2-0.2,0.5-0.4,0.7-0.6
						c1.9-1.7,3.6-3.4,5.1-5.3c1-1.2,2-2.4,3.1-3.6c1.2-1.5,2.5-2.9,3.7-4.4c2.4-2.9,4.7-5.8,6.8-8.5c-4.7,13.5,3.7,9.4,34.5-23.1
						c1.6-1.8,3.2-3.5,4.8-5.2c0.8-0.8,1.5-1.7,2.3-2.5c1.2-1.4,2.4-2.7,3.6-4.1c5.8-6.5,11.4-12.8,16.6-18.8
						c-1.2-9.9-2.5-19.3-3.7-27.9c-0.2-1.3-0.2-1.6-0.3-2.2c-0.1-0.5-0.2-1.1-0.3-1.6c-0.2-1-0.4-2.1-0.5-3.1c-0.4-2-0.7-4-1.1-5.8
						c-1.5-7.5-3-13.8-4.6-19c-3.2-10.4-6.6-16.3-10-18.1c1.4-25.1-7.3-77.2-14.6-79c-5.5-1.9-8.9-7.6-11.7-15.5
						c-1.4-4-2.6-8.5-3.9-13.5c-0.6-2.5-1.2-5.1-1.9-7.7c-0.2-0.7-0.3-1.3-0.5-2c-0.2-0.6-0.3-1.2-0.5-1.9c-0.3-1.3-0.7-2.5-1-3.8
						c-0.2-0.8-0.4-1.7-0.6-2.5L77.3,83l3-0.3c0,0-0.1,0-0.1,0c-0.9,0.2-1.7,0.5-2.4,0.7c2.7,11.1,5,18,6.9,22.3
						c1.9,4.3,3.4,5.9,4.6,6c1.2,0.1,2.1-1.3,2.7-3.4c0.6-2.1,0.9-5,0.8-8.5c0-1.6-0.1-3.2-0.2-4.7c3.4-0.2,6.5-0.4,9.4-0.8
						c1.5-0.2,2.9-0.4,4.3-0.6c0.7-0.1,1.4-0.3,2.1-0.4l0.5-0.1l0.3-0.1l0.5-0.1l2.1-0.3c11.1-1.8,21.9-4.1,33-7
						c14.8,2.9,74.4-4.1,70.7-10.9c1.9-3.4,7.3-6.4,14.4-9.1l87.4-9.8l76.3,39.7c-9.6-4.1-18.7-8.5-25.1-11.7l178.1,92.3l2.5,1.3
						l0.2,0.1c0.1,0,0.1,0.1,0.1,0.1l0,0.4c0,0.2-0.1,0.5-0.1,0.7c-0.1,0.5-0.1,0.9-0.2,1.4l-0.5,2.8l-0.7,2.8
						c-0.9,3.7-2.1,7.3-3.3,10.9c-0.6,1.8-1.2,3.6-1.9,5.4l-2.2,5.7c-0.7,2-1.6,3.8-2.5,5.8l-2.5,5.8c-3.5,7.6-7.2,15.2-11.1,22.6
						l-2.9,5.6c-1,1.9-2,3.7-3,5.5l-6.2,11c-2.1,3.7-4.3,7.2-6.4,10.9c-2.2,3.6-4.3,7.2-6.5,10.8c-4.5,7.1-9,14.3-13.5,21.4
						l-14,21.1c-4.8,7-9.6,13.8-14.5,20.8c-4.8,7-9.8,13.7-14.8,20.5l-7.5,10.2l-1.8,2.4c-0.3,0.4-0.5,0.8-0.9,1.1l-1.1,1l-4.6,4.1
						l-37.8,33.8l-76.5,68.2l-40.8,36.4l-40,35.9l-5,4.5l-2.5,2.2l-1.2,1.1l-0.3,0.3l-0.2,0.1c-0.1,0.1-0.1,0.1,0,0.1l0.8-0.2
						l13.3-2.7c8.9-1.8,17.7-3.7,26.5-5.6c17.6-3.8,35.2-7.7,52.8-11.8c8.4-2,16.8-4,25.2-6l12.6-3.1l11.8-3
						c15.7-4,31.3-8.2,46.8-12.8c15.5-4.5,31-9.4,46.2-14.9l5.7-2.1l2.9-1.1c1-0.4,2-0.8,3-1.2l6-2.5c2-0.9,3.9-1.8,5.9-2.7
						c1-0.5,2-0.9,2.9-1.4l2.8-1.5c1.9-1,3.8-1.9,5.6-3l2.8-1.6c0.5-0.3,0.9-0.5,1.4-0.8l1.3-0.9l2.7-1.8l0.7-0.5l0.2-0.1
						c0.1,0,0.1-0.1,0.1-0.1l-0.1-0.3l-0.5-1.3c-4.1-7.2-8.2-14.4-12.4-21.6l-6.2-10.6l-5.9-10l-0.9-1.5l-0.2,0.1l-0.1,0.1
						c-11.6-18.8-23.4-36.6-32.1-47.2c-4.3-5.4-7.9-8.8-9.9-9.8C432,386.2,431.9,387.3,433.7,390.9z"/>
					<path class="st1" d="M289.6,53.2l6.1-0.7C294,52.7,292,52.9,289.6,53.2z"/>
				</g>
			</g>
		</g>
		<g>
			<g>
				<g>
					<path class="st1" d="M547,175.4l1.1,1.4C547.8,176.4,547.4,175.9,547,175.4z"/>
					<path class="st1" d="M314.2,58.9c3.8-0.4,10.3-10.1,11.3-12.8c-0.5,1.1-0.7,2.5-0.5,3.5c0.2,1,0.9,1.6,2.1,1.4
						c1.6-0.2,3.3-1.9,5.4-5c1-1.6,2.2-3.5,3.6-5.9c0.7-1.2,1.4-2.5,2.2-3.8c0.2-0.3,0.4-0.7,0.6-1.1c0.1-0.1,0.1-0.2,0.2-0.2
						l0.2,0.1l0.4,0.1c0.6,0.2,1.2,0.3,1.8,0.5c3,0.5,6.3,1.5,9.6,2.6l11.4,7l2.9,1.8l3.1,2l6.2,3.9c-3.7-1.4-7-2.4-9.9-3.1
						c-0.8-0.2-1.4-0.2-1.9-0.3c-0.6,0-1.1-0.1-1.6-0.1c-1,0-1.9,0.1-2.6,0.3c-3,0.8-3.8,2.9-3,5.2c0.3,0.9,0.6,1.7,1,2.4
						c0.2,0.4,0.4,0.7,0.6,1c0.1,0.2,0.2,0.3,0.4,0.5l0.2,0.2c0.1,0.1,0.1,0.1,0.2,0.3c2,1.8,4.3,3.5,6.7,4.9
						c4.8,2.9,9.7,4.9,12.4,5.4c-3.3,1.3,0.6,6.1,4.5,9.2c5.1,4.1,11.2,8.2,22.3,8.7c9.1-0.3,15.8,1.1,21.3,2.8
						c5.4,1.7,9.5,3.9,13.3,5.4c1.4,0.6,2.6,1.3,3.6,1.9l0.9,0.7c3,2.3,2.2,3.9-2.5,1.5c-5.4-2.3-9.7-3.6-13.1-4.5
						c-3.4-0.9-5.8-1.1-7.6-1.1c-3.6,0.2-4.5,1.8-4.8,3.3c-0.5,3.2,7.2,10.5,14.2,13.1c-5.9,2.4-6.1,6.7,2.3,14.7
						c5.5,5,10.5,7.6,14.7,8.4c4.2,0.8,7.8-0.4,10.6-3c2.6,7.3,14.7,13.7,19.6,8.6c6.7-6.6,10.8-5.3,16.3-3.8l5.8,4.7
						c-10.9-2-13.3,3.3-8.5,8.8c1.3,1.5,2.6,2.8,3.9,4c1.3,1.2,2.6,2.2,4.1,3.1c2.8,1.8,6,2.9,9.7,3.7c-0.1,2.9,2.8,6.9,6.2,9.4
						c3.3,2.5,7.3,3.7,9.4,0.8c2.1-1.5,4.2-2.3,6.4-2.5l3.6,3.5c0.6,0.6,1.2,1.2,1.8,1.8l1.7,1.7c1.1,1.1,2.1,2.2,3.1,3.3
						c0.5,0.6,1,1.1,1.5,1.7l0.7,0.9l0.4,0.4c0.1,0.1,0.2,0.3,0.3,0.5c0.7,1.4,0.9,2.9,1.2,4.4l0.3,2.3l0.2,2.3
						c0.1,1.5,0.1,3,0.1,4.6c0,1.6-0.1,3.3-0.1,5c0-0.2,0-0.3,0-0.5c0,1.5-0.1,3.1-0.2,4.7c-0.7,11.2-2.1,22.5-3.6,33.7
						c-1.6,11.2-3.4,22.5-5.3,33.7c-3.8,22.4-8.1,44.8-12.6,67.1c-9,44.6-18.9,89.1-29.2,133.4l1.4,0.2l-0.1,0.4
						c-2,11.7-3,23,2,19.5c3.2-2.2,4.3-13.5,4.1-17.3c0.1,2.6,1.6,6,3.7,3.7c2.9-2.8,3.9-14.2,4.1-28.8c-0.2-7.7,0.1-14.9,0.7-21.5
						l6.3-28.4c-2,20.8,2.5,33.3,7.4,28c6.5-6.5,8-22.6,7.1-28.1c2.4,2.7,5.5-2.8,7.1-7.6c2.1-6.3,3.6-13.7,0-24.3
						c-7.2-16.9-5.6-27.2-5.7-35.3c-0.1-8.4,3.3-10.6,2.9-3.4c0.5,23.6,4.9,25.3,7.9,24.6c3.1-0.8,6.9-10.9,6.6-18.6
						c4.6,4.5,8.6,3,12.5-8.4c4.6-14.8,1.4-23.2-5.8-26c5.5-5.7,5.7-20.1-1.2-22c-10-3.1-9.7-8.2-11.7-14.7
						c-0.1-0.3-0.1-0.5-0.2-0.8l1.2-7.2c0,0,0,0,0,0c3.6,13.1,10,13.2,12.6,5.5c2.7-7.7,2.8-14.1,0.1-21.4c2.5-1.6,4.2-6.4,4.4-10.9
						c0.2-4.5-1.3-8.6-4.9-8.5c-3-0.9-5.3-2.7-6.9-4.8c0.4-3.9,0.7-7.8,1-11.7c0.1-2,0.2-3.9,0.3-5.9c0-1,0.1-2,0.1-3c0-1,0-2,0-3.1
						c-0.1-4.1-0.4-8.3-1.7-12.3c-0.2-0.5-0.4-0.9-0.6-1.4c-0.2-0.5-0.6-0.8-0.9-1.2c-0.7-0.8-1.3-1.6-2-2.4
						c-1.4-1.5-2.8-3.1-4.2-4.5c2.7,1.6,4.9,3.6,6.4,5.2c-0.8-1-1.7-1.8-2.5-2.8c-0.8-0.9-1.7-1.8-2.6-2.7l-2.5-2.5
						c-0.8-0.8-1.6-1.6-2.4-2.4c-3.2-3.2-6.6-6.2-9.9-9.3c-3.3-3-6.8-6-10.1-8.9l-10.4-8.7c-7-5.6-14-11.3-21.2-16.7
						c-7.1-5.5-14.4-10.7-21.6-16.1c-29.1-21.1-59.1-40.8-89.5-59.7l-3.4-2.1c-1.1-0.7-2.2-1.4-3.4-2.2l-7.2-4.4l-14.3-8.8l-7.2-4.4
						l-1.8-1.1c-0.1-0.1-0.1,0-0.2,0.1l-0.2,0.2l-0.4,0.4l-0.7,0.8l-2.8,3.2l-11.3,12.8l-0.3,0.4l0.2,0.2l0.1,0.1
						c-1,1.2-1.9,2.4-2.8,3.6c-0.9,1.2-1.7,2.3-2.4,3.4c-1.5,2.2-2.7,4.2-3.5,5.9C311.2,57.1,311.2,59.3,314.2,58.9z"/>
					<path class="st1" d="M544.1,199.2l0-1.6C544.1,198,544.1,198.6,544.1,199.2z"/>
				</g>
			</g>
		</g>
		<g>
			<g>
				<g>
					<path class="st1" d="M55.1,107.7l0.5-1.5C55.4,106.6,55.3,107.1,55.1,107.7z"/>
					<path class="st1" d="M21.7,387.1c2.6-2.8,0.9-13.3-0.2-16.8c0.8,2.4,3,5.1,4.5,2.5c0.5-0.8,0.8-2.1,0.9-3.7
						c0.1-1.6-0.1-3.7-0.3-6c-0.4-4.7-1.4-10.7-2.7-17.5c-1.1-4.2-1.7-8.3-2.2-12.2l0.8-13.9c0.3-4.6,0.8-9.2,1.2-13.9
						c1.7,14.9,7.2,22.4,10.6,17.6c2.6-3.4,3.9-8.8,4.2-14c0.3-5.2-0.2-10.2-1-12.7c1.4,1.1,2.6,0.4,3.7-1.3c1.1-1.6,2-4.1,2.5-6.4
						c0.7-3,1.3-6.2,1.1-9.9c-0.1-1.8-0.4-3.8-0.9-5.9c-0.5-2.1-1.3-4.3-2.3-6.7c-4.2-7.7-6.1-14-6.9-19.4
						c-0.8-5.4-0.6-9.7-0.8-13.6c-0.1-1.5,0-2.8,0.1-3.8l0.2-1.1c0.7-3.6,2.5-3.5,2.4,1.6c0.8,11.2,2.2,17,4,20.1
						c1.7,3,3.6,3.2,5.1,2.8c3-0.9,6.3-10.4,5.7-17.4c4.8,4.1,8.6,2.6,12.1-7.9c4.3-13.5,0.9-21.2-6.2-24c5.6-5.1,5.9-18.3-0.8-20.5
						c-8.8-3.1-9.4-7.2-10.6-12.6l1.6-6.9c3.1,10.3,8.9,10.2,11.6,3.8c3.1-6.9,3.7-12.7,1.7-19.8c5.3-2.3,8.8-16.7,1.8-17.9
						c-2.3-1.1-4-2.6-5.2-4.3l2.7-9.3c0.9-3.1,1.9-6.1,2.8-9.2l1.4-4.6l1.6-4.5l1.6-4.5c0.3-0.8,0.5-1.4,0.8-2.1l0.8-2
						c0,0.1-0.1,0.3-0.1,0.4l0.4-1.1c0.4-0.9,0.7-1.8,1.1-2.7c1.1-2.2,3-3.8,4.9-5.3c2-1.4,4.1-2.6,6.2-3.7c2.2-1.1,4.7-2.2,7.1-3.2
						c2.4-1,4.9-1.9,7.4-2.8c10.1-3.5,20.5-6.3,30.9-8.9c20.9-5.1,42.2-9.2,63.5-12.9C233.1,42,276,36.2,319,31.2l-0.3-1.4l0.4-0.1
						c11.1-2,21.6-4.7,16.8-8.3c-3.1-2.3-13.5,0.4-16.8,1.8c2.3-1,4.8-3.5,2.1-4.7c-3.5-1.8-14,1-27.1,5.7
						c-6.8,2.8-13.3,4.9-19.4,6.6c-9.2,1.2-18.3,2.4-27.5,3.7c19.2-5.2,28.9-13.7,22.5-16.5c-7.9-3.9-22.9,0.1-27.5,2.9
						c1.6-3.2-4.3-4.2-9.2-4c-6.3,0.2-13.5,1.3-21.7,8.4C198.8,37.9,189.2,40,182,43.1c-7.4,3.1-10.6,0.7-4.1-1.4
						c10.3-4.5,15.6-7.8,18-10.4c2.4-2.6,2-4.4,1.1-5.7c-1.8-2.6-12.2-2.6-18.9,0.4c2.4-5.9-0.4-9.1-12-8.6
						c-14.9,1.1-21.3,7.3-21.1,14.9c-3.6-1.5-8.6-0.9-12.6,0.9c-4,1.9-7,5-6.5,8.5c1.1,10.4-3.4,12.1-8.3,16.5
						c-0.2,0.2-0.4,0.3-0.6,0.5c-2.3,0.6-4.5,1.2-6.7,1.8l0,0c4.9-4.3,6.8-7.9,6.5-10.3c-0.3-2.4-2.9-3.8-6.9-3.4
						c-7.9,0.7-13.7,3.3-19,9c-2.5-1.5-7.7-0.8-11.9,1.4c-1,0.6-2,1.2-2.9,1.9c-0.8,0.7-1.5,1.5-2.2,2.3c-1.3,1.7-1.6,3.4-0.4,4.8
						c0.5,1.5,0.6,3,0.6,4.4c0,1.4-0.2,2.8-0.5,4c-2.1,1.4-4.2,2.8-5.9,4.6c-0.8,0.9-1.6,1.9-2.2,3c-0.3,0.5-0.5,1.1-0.8,1.7
						L64,85.7c-2.1,5.1-3.6,9.8-5.3,14.6c-1.5,4.8-3.1,9.6-4.5,14.5c0-2.8,0.5-5.3,0.9-7.1c-1.3,4.1-2.5,8.2-3.6,12.3l-1.7,6.2
						c-0.6,2.1-1.1,4.1-1.6,6.2c-1.1,4.1-2.2,8.3-3.2,12.4l-3,12.5c-1,4.1-1.9,8.3-2.9,12.5c-0.9,4.2-1.9,8.3-2.8,12.5l-2.5,12.6
						l-1.3,6.3c-0.4,2.1-0.8,4.2-1.2,6.3C25,241,20.2,274.9,17.4,309l-0.7,7.6c-0.2,2.5-0.3,5.1-0.5,7.6l-0.9,15.2
						c-0.2,2.5-0.2,5.1-0.3,7.6l-0.2,7.6l-0.2,7.6c0,1.3-0.1,2.5-0.1,3.8l0.1,3.8l0,0.4l0.3,0l0.1,0
						C15.9,381.2,17.8,391.5,21.7,387.1z"/>
					<path class="st1" d="M68.8,89.7L68.3,91C68.5,90.6,68.6,90.2,68.8,89.7z"/>
				</g>
			</g>
		</g>
	</g>
</g>
<g>
	<g>
		<g>
			<path class="st2" d="M322.4,300.9c0.8,3.3,0.7,6.9-0.7,10.3c-0.2,0.4-0.4,0.9-0.6,1.3c-0.2,0.4-0.5,0.8-0.8,1.2s-0.6,0.8-0.9,1.2
				c-0.3,0.4-0.7,0.7-1.1,1.1c-0.4,0.4-0.8,0.7-1.2,1.1c-0.4,0.3-0.9,0.6-1.4,0.9c-0.5,0.3-1,0.6-1.5,0.8c-0.5,0.2-1.1,0.4-1.7,0.6
				c-0.6,0.2-1.2,0.4-1.8,0.5c-0.6,0.1-1.2,0.2-1.8,0.3c-0.6,0.1-1.3,0.1-1.9,0.2c-0.6,0-1.3,0-1.9-0.1c-0.7,0-1.3-0.1-2-0.2
				c-0.7-0.1-1.3-0.2-1.9-0.4c-0.6-0.2-1.3-0.3-2-0.5c-0.7-0.2-1.2-0.4-1.9-0.7c-5-2-9.1-5.2-12.4-8.6c-3.3-3.4-5.8-7.2-7.8-11.1
				c-1.9-3.8-3.4-7.8-4.3-11.8c-0.5-2-0.8-3.9-1-5.9c-0.2-1.9-0.4-4-0.4-5.9c0-1.9,0-3.9,0.3-5.8c0.2-1.9,0.5-3.9,0.9-5.8
				c1.6-7.7,4.9-15.2,10.3-22.2c1.3-1.7,3-3.5,4.6-5.1c0.8-0.8,1.8-1.7,2.7-2.5l1.4-1.2c0.5-0.4,1-0.8,1.6-1.2
				c1.1-0.8,2.1-1.5,3.2-2.2c1.2-0.7,2.4-1.4,3.7-2.1c0.6-0.3,1.2-0.6,1.9-0.9c0.7-0.3,1.4-0.6,2.1-0.9c0.7-0.3,1.4-0.6,2.1-0.8
				c0.7-0.3,1.4-0.5,2.2-0.7c1.6-0.5,3.2-0.8,4.7-1.2c0.4-0.1,0.8-0.2,1.2-0.2l1.3-0.2c0.9-0.1,1.7-0.2,2.6-0.3
				c3.3-0.4,7-0.2,10.5,0.2c3.5,0.6,6.9,1.3,10.1,2.6c1.6,0.6,3.2,1.3,4.6,2c1.4,0.8,2.8,1.6,4.2,2.5c1.4,0.9,2.5,1.8,3.7,2.7
				c1.1,0.9,2.3,1.9,3.2,2.9c0.9,1,1.8,1.9,2.6,2.9c0.4,0.5,0.8,1,1.2,1.5c0.4,0.5,0.7,1,1,1.4c1.3,1.9,2.5,3.9,3.3,5.7
				c0.4,0.9,0.8,1.8,1.2,2.7c0.4,0.9,0.6,1.7,0.9,2.5c0.3,1,0.6,2,0.9,2.9c0.2,0.9,0.4,1.8,0.5,2.7c0.1,0.9,0.3,1.8,0.3,2.6
				c0,0.8,0.1,1.6,0.1,2.4c0,0.8,0,1.5,0,2.3c-0.1,0.7-0.1,1.4-0.2,2.1c-0.2,1.4-0.4,2.7-0.7,3.8c-0.3,1.2-0.7,2.3-1.1,3.4
				c-0.4,1-0.9,2-1.4,2.9c-1,1.8-2.2,3.3-3.3,4.7c-2.4,2.6-5,4.4-7.6,5.6c-1.3,0.6-2.5,1-3.8,1.4c-1.2,0.3-2.4,0.6-3.6,0.7
				c-4.5,0.5-8.1-0.2-9.9-0.9c-1.8-0.7-1.7-1.4,1.2-2c2.9-0.6,4.5-1.2,5.3-1.7c0.8-0.5,0.6-0.8-0.1-1c-1.3-0.3-4.4-0.2-6.2-0.2
				c-7.1-0.2-12.7-1.3-17.1-2.2c-2.2-0.5-4.1-0.9-5.8-1.2c-0.8-0.2-1.6-0.3-2.3-0.5c-0.7-0.1-1.4-0.2-2-0.3
				c-0.6-0.1-1.2-0.2-1.6-0.2c-0.5,0-1,0-1.3,0c-0.2,0-0.3,0-0.5,0c0.2,0,0.5,0,0.7-0.1c0.5,0,1-0.1,1.5-0.1c1-0.2,2-0.3,3-0.5
				c1-0.2,1.9-0.4,2.6-0.6c0.4-0.1,0.8-0.2,1.1-0.4c0.4-0.1,0.7-0.2,1-0.3c0.7-0.2,1.3-0.6,1.9-0.8c0.5-0.2,1-0.5,1.5-0.7
				c0.4-0.2,0.8-0.5,1-0.6c0.5-0.3,0.7-0.4,0.6-0.3c-0.1,0-0.2,0.2-0.5,0.3c-0.1,0.1-0.3,0.1-0.5,0.3l-0.3,0.2l-0.1,0.1l0,0
				c0,0,0,0,0.1,0l0.3-0.2l-0.1,0c0,0-0.1,0,0.1-0.1c0.2-0.1,0.4-0.2,0.6-0.3c0.3-0.2,0.7-0.4,1-0.6c0.3-0.2,0.6-0.5,0.9-0.6
				c0.2-0.2,0.5-0.3,0.7-0.5c0.2-0.2,0.4-0.4,0.6-0.5c0.2-0.2,0.3-0.3,0.4-0.4c0.3-0.2,0.5-0.5,0.7-0.7c0.1-0.1,0.2-0.2,0.2-0.2
				l0.1-0.2l0.2-0.2c0.4-0.5,0.7-1.1,1.1-1.6c0.4-0.6,0.8-1.2,1.3-1.7c0.9-1.1,1.7-1.8,2.5-2.3c0.8-0.5,1.5-0.8,2.4-1.2
				c0.8-0.4,1.7-0.7,2.6-1.3c1-0.6,2-1.5,3.2-3.1c2.3-2.5,3.7-5.3,4-8.4c0.1-1.6-0.1-3.2-0.6-4.9c-0.5-1.7-1.6-3.3-2.8-5
				c-0.6-0.8-1.5-1.5-2.3-2.3c-0.9-0.7-1.8-1.5-2.8-2.1c-2.1-1.2-4.5-2.3-7-2.9c-2.6-0.7-5.2-0.9-8-1c-1.3,0-2.6,0.1-3.9,0.3
				c-0.6,0.1-1.3,0.2-2,0.3c-0.6,0.1-1.2,0.3-1.8,0.4c-5,1.2-9,3.2-12.4,5.5c-1.6,1.1-3.3,2.3-4.5,3.5c-0.7,0.6-1.3,1.2-1.9,1.8
				c-0.6,0.6-1.1,1.2-1.7,1.8c-0.5,0.6-1,1.2-1.5,1.8c-0.4,0.6-0.9,1.2-1.3,1.7c-0.8,1.1-1.5,2.2-2.1,3.2c-0.6,1-1.1,1.9-1.5,2.8
				c-0.4,0.8-0.7,1.6-0.9,2.2c-0.2,0.6-0.5,1.2-0.7,1.8c-0.2,0.6-0.3,1.1-0.5,1.7c-0.3,1.1-0.5,2-0.6,2.8c-0.2,1.6-0.1,2.8,0.1,3.2
				c0.2,0.5,0.7,0.3,1.2-0.6c0.3-0.5,0.6-1.1,1-2c0.4-0.8,0.9-1.9,1.4-3.2c1.7-4.5,4-8.6,7-12c2.9-3.5,6.5-6.4,10.4-8.5
				c1-0.5,2-1,3-1.4c1.1-0.4,2.1-0.8,3.2-1.1c1-0.3,2.1-0.6,3.2-0.8c1.1-0.2,2.1-0.4,3.2-0.5c2.2-0.2,4.1-0.2,6.2,0.1
				c1,0.1,1.9,0.3,2.8,0.5c0.9,0.2,1.8,0.5,2.6,0.8c0.8,0.3,1.6,0.6,2.2,1c0.7,0.4,1.3,0.8,1.9,1.2c1.2,0.8,2.1,1.7,2.9,2.6
				c1.5,1.8,2.3,3.5,2.5,5c0.4,3-0.9,5-2.5,6.1c-4.2,2.8-6.3,3.8-8.5,3.9c-0.6,0.1-1.1,0-1.7,0c-0.6,0-1.2-0.1-1.9-0.2
				c-0.6,0-1.3-0.1-2-0.2c-0.7-0.1-1.4-0.1-2.1-0.2c-1.4-0.1-2.5,0.1-3.3,0.3c-0.8,0.2-1.3,0.5-1.6,0.7c-0.5,0.5,0.1,0.9,1.6,1.1
				c0.7,0.2,1.5,0.3,2.4,0.6c0.8,0.3,1.6,0.7,2.3,1.3c1.4,1.1,2.3,2.8,2.6,5c0.1,0.7,0.1,1.3,0,1.7c-0.1,0.2-0.2,0.4-0.3,0.5
				c-0.1,0.2-0.3,0.3-0.5,0.4c-0.4,0.2-0.9,0.4-1.5,0.5c-0.6,0.2-1.4,0.2-2.2,0.4c-0.9,0.2-1.8,0.3-2.9,0.6
				c-0.5,0.1-1.1,0.3-1.6,0.5c-0.5,0.2-1.1,0.4-1.7,0.6c-2.4,0.9-4.8,2.3-7.2,4.3c-1.9,2.1-3.4,4.6-4.4,7.3
				c-0.9,2.7-1.4,5.7-1.3,8.6c0.1,2.9,0.8,5.9,2.1,8.6c1.3,2.7,3.2,5.2,5.6,6.9c2.4,1.8,5.2,2.7,7.7,2.6c2.5-0.1,4.6-1.2,5.9-2.6
				c1.3-1.5,1.8-3.2,1.9-5c0-0.9-0.1-1.7-0.2-2.6c-0.2-0.9-0.5-1.7-0.8-2.6c0.2,0.8,0.2,1.7,0.2,2.4c0,0.4,0,0.8-0.1,1.2
				c0,0.3-0.1,0.7-0.2,1.1c-0.2,0.8-0.5,1.3-0.8,2c-0.2,0.3-0.4,0.5-0.6,0.8c-0.2,0.2-0.5,0.5-0.8,0.7c-0.5,0.4-1.2,0.8-1.9,1
				c-0.3,0.1-0.7,0.2-1.1,0.3c-0.4,0-0.7,0-1.1,0c-0.8,0-1.5-0.2-2.2-0.4c-0.7-0.2-1.4-0.6-2.1-1c-2.7-1.6-4.5-4.4-5.5-7.1
				c-1-2.8-1.2-5.6-0.8-8.2c0.3-2.6,1.2-4.9,2.5-6.7c0.6-0.9,1.3-1.7,2-2.3c0.7-0.6,1.5-1.2,2.3-1.5c3.2-1.6,6.6-1.1,9.6,0.4
				c3,1.5,5.2,3.1,6.2,4.5c1.1,1.4,1,2.5-0.4,3.9c3.1,0.1,6.8,0.4,9,0.7c0.6,0,1,0.1,1.4,0.1c0.2,0,0.3,0,0.4,0l0.1,0l0,0l-0.2,0
				c-0.3,0-0.5,0.1-0.8,0.1c-0.6,0.1-1.2,0.2-2,0.3c-0.4,0.1-0.7,0.2-1.1,0.3c-0.4,0.1-0.8,0.2-1.2,0.3c-0.4,0.1-0.9,0.3-1.3,0.4
				c-0.5,0.1-0.9,0.3-1.4,0.5c-0.5,0.2-1,0.4-1.5,0.6c-0.5,0.2-1,0.4-1.5,0.7c-0.3,0.1-0.5,0.3-0.8,0.4c-0.2,0.1-0.5,0.2-0.7,0.4
				c-0.5,0.3-0.9,0.6-1.3,0.9c-0.4,0.2-0.8,0.5-1.1,0.8c-0.3,0.3-0.6,0.6-0.9,0.8c-0.1,0.1-0.3,0.3-0.4,0.4l-0.2,0.2
				c-0.1,0.1-0.1,0.1-0.1,0.2c-0.2,0.2-0.3,0.4-0.5,0.7c-0.1,0.2-0.1,0.1-0.1,0.2c0,0.1-0.1,0.1-0.1,0.2c0,0.1-0.1,0.2-0.1,0.2
				c0,0,0,0,0,0c0,0,0,0.1,0,0c0,0,0,0,0,0c0,0,0,0,0,0l0-0.1c0-0.1,0-0.2,0-0.2c0-0.1,0-0.1,0-0.2l0-0.4c0-0.3-0.1-0.5-0.1-0.8
				c-0.1-0.4-0.1-0.8-0.3-1.1l-0.2-0.5c-0.1-0.2-0.1-0.4-0.2-0.7c-0.2-0.4-0.3-0.8-0.5-1.2c-0.2-0.5-0.4-0.9-0.7-1.3
				c-0.1-0.2-0.3-0.4-0.4-0.6c-0.1-0.2-0.3-0.5-0.4-0.7c-0.6-0.9-1.2-1.6-1.8-2.5c-0.3-0.4-0.7-0.8-1-1.1c-0.3-0.4-0.7-0.8-1-1.1
				c-0.3-0.3-0.7-0.7-1-1c-0.3-0.3-0.7-0.6-1-0.9c-2.7-2.3-5.1-3.7-6.7-4.5l-0.8-0.4l-0.2-0.1l-0.1,0c0,0,0,0,0,0l0,0c0,0,0,0,0-0.1
				c0,0,0-0.2,0.1-0.3c5.4,1.7,10.3,4.3,14.3,7.9C318.1,290.9,321.2,295.5,322.4,300.9z"/>
		</g>
	</g>
</g>
<g>
	<g>
		<g>
			<path class="st2" d="M250.8,246.4c-2.7-2.3-5.3-4.3-8-5.8c-1.3-0.8-2.6-1.4-3.9-1.7c-0.6-0.2-1.3-0.3-1.9-0.3
				c-0.6,0-1.2,0-1.7,0.2c0.4-0.1,0.8-0.3,1.2-0.4l0.6-0.3c0.1-0.1,0.3-0.1,0.4-0.2c0.3-0.1,0.5-0.3,0.8-0.5
				c0.2-0.1,0.3-0.2,0.5-0.3c0.1-0.1,0.2-0.1,0.2-0.2c0.1-0.1,0.1-0.1,0.1-0.1c0.1-0.1,0.1-0.1,0.2-0.2c0,0,0,0.1,0,0.1
				c0,0,0,0-0.1,0.2c-0.1,0.1-0.1,0.3-0.1,0.4l0,0.1l-0.1,0.2c0,0.1-0.1,0.3-0.1,0.4c-0.1,0.3-0.1,0.5-0.1,0.8
				c0,0.4-0.1,0.8-0.1,1.2c0,0.4,0,0.8,0.1,1.2c0,0.5,0,1,0.1,1.6c0.1,0.5,0.1,1,0.2,1.5l0.1,0.4c-0.5-2.9,1.2,6.6-1.1-6.5l0,0l0,0
				l0,0l0,0.1c0,0.2,0.2,0.8,0.8,1.7c0.6,0.9,1.5,2,2.9,3.3c2.7,2.5,6.8,5.4,12,8.1c0.7,0.4,1.3,0.7,2,1.1l0.6,0.3
				c0.1,0,0.1,0,0.2,0.1c0.2,0.2,0.4,0.3,0.6,0.4c0.4,0.3,0.7,0.7,1.1,1c0.6,0.8,1.1,1.6,1.5,2.5c1.5,3.7,1.4,7.9,0.4,11.7
				c-1,3.9-3.1,7.5-5.6,10.5c-5.7,7.4-17.1,11.1-25.8,12.6c-4.3,0.7-8,0.9-9.8,0.7c-1.9-0.2-2-0.9,0.8-1.6c11.1-2.9,2.2-2.3-1.4-2.1
				c-14.1,0.6-22.6-1.4-27.3-4.2c-4.7-2.8-5.7-6.2-4.9-8.1c0.7-1.9,3.1-3.3,6.1-3.7c3-0.5,6.7,0,10.3,1.7c-1.4-4.5,6.1-5.7,11.5-4.4
				c5.5,1.3,5.3,3.6,12.8,3.5c13.5,0.4,20.2-3.3,23.6-7c3.4-3.9,3.6-7.8,3.4-9.3c-0.2-1.6-0.9-2.6-1.6-3.1c-0.7-0.4-1.4-0.2-1.6,1.5
				c0.3,6-3.6,10.5-8.6,13c-5,2.5-11,3.1-14.4,1.8c-8.5-3.3-5-7.2-1.5-9.5c3.5-2.3,3.2-3.1,0.7-2.4c-2.5,0.7-6.4,2.2-10-0.5
				c-2.3-2-1.1-3.8,1.8-5.7c2.9-1.9,7.3-3.9,11.3-6.1c3.3-2.4,5.6-4.8,7.1-6.3c0.7-0.8,1.1-1.2,1-1.5c0-0.1,0-0.1,0-0.1l0-0.2
				c0,0-0.1-0.1,0-0.2l0.2-0.2l0.3-0.3c0.1-0.1,0.1-0.1,0.2-0.2l0.2-0.3c0.1-0.1,0.1-0.1,0.2-0.2c0.1-0.1,0.1-0.2,0.2-0.3
				c0-0.1,0.1-0.2,0.2-0.2c0.2-0.2,0.3-0.3,0.5-0.5c0.2-0.2,0.4-0.2,0.7-0.3c0.3-0.1,0.6-0.1,1-0.1c1.4,0.1,3,1.1,4.6,2
				c3.1,2,6.3,4.3,9.9,5.8c-1.5-1.5-2.9-2.9-4.3-4.2c-1.4-1.4-2.6-2.6-4-3.7c-1.3-1.1-2.7-2-4-2.4c-1.4-0.5-2.6-0.4-3.5-0.2
				c-0.5,0.2-0.9,0.3-1.4,0.5c-0.2,0.1-0.4,0.2-0.6,0.2c-0.2,0.1-0.4,0.2-0.6,0.3c-0.4,0.2-0.7,0.3-1,0.5c-0.3,0.2-0.6,0.4-0.8,0.6
				c-1.1,0.8-2.2,1.9-3.5,3c-2.4,2.3-5.3,4.3-8.5,5.3c-3.2,1-6.6,1.1-9.6-0.4c-3.1-1.4-5.1-3.5-5.7-5.9c-0.6-2.4,0.3-5.4,3.6-8.4
				c-1.3-0.8-2.8-1.6-4-2.7c-0.6-0.6-1.1-1.2-1.6-1.9c-0.4-0.7-0.6-1.6-0.7-2.5c0-0.5,0-1,0.1-1.6c0.1-0.6,0.3-1.2,0.5-1.8
				c0.3-0.7,0.7-1.4,1.1-2.1c0.6-0.8,1.1-1.6,2-2.5c1.7-1.8,4.1-4,8-6.2c2-1.1,4.4-2.2,7.3-3c1.5-0.4,3-0.8,4.6-1
				c0.4-0.1,0.8-0.1,1.2-0.2l0.6-0.1l0.3,0l0.2,0c0.6,0,1.1,0,1.7,0c4.1,0.3,10.4,0.7,17.4,4c0.9,0.4,1.7,0.8,2.5,1.3
				c0.9,0.5,1.7,1.1,2.6,1.6c0.8,0.6,1.6,1.2,2.4,1.8c0.7,0.6,1.5,1.3,2.1,2c0.7,0.7,1.4,1.4,2,2.1c0.5,0.7,1.1,1.4,1.6,2.1
				c0.5,0.7,1,1.4,1.4,2.2c0.4,0.7,0.7,1.3,1.1,2c0.3,0.7,0.6,1.3,0.9,2c0.2,0.4,0.3,0.6,0.4,0.9l0.3,0.9c0.2,0.6,0.4,1.2,0.6,1.7
				l0.3,0.9l0.2,0.7c0.3,1,0.5,2,0.7,2.9c0.2,0.8,0.3,1.7,0.5,2.5c0.1,0.4,0.1,0.8,0.2,1.2l0.2,1.1l0.2,1.1l0.1,1
				c0.2,1.2,0.3,2.4,0.5,3.6c0.1,0.5,0.1,1.1,0.2,1.6c0.1,0.5,0.2,1,0.2,1.6c0.2,1,0.4,2,0.6,2.9c0.4,1.8,0.9,3.6,1.5,5.3
				c1.2,3.3,2.9,6.5,5.1,9.5c-0.4,1.5-0.8,2.9-1.2,4.3l-0.7,2.2l-0.4,1.1l-0.5,1.5c-0.4-1-1-1.5-1.5-2.2c-0.5-0.6-1.1-1.2-1.6-1.8
				c-1.1-1.2-2.2-2.3-3.3-3.4c-2.2-2.2-4.3-4.3-6.5-6.4C259.3,254.1,255,250,250.8,246.4z"/>
		</g>
	</g>
</g>
<g>
	<g>
		<g>
			<path class="st2" d="M235.3,269.8c38.8,30.4,34.3,41.3,23.5,43.4c-12.5,2.8-44.2-11.7-33.6-8.4c10.6,3.3,2.4-0.1-0.9-1.4
				c-26.1-10.9-29.9-16.7-28.2-17.6c1.7-0.8,9,1.4,15.2,5.5c-0.9-2.3,6-0.1,11,2.5c4.9,2.6,4.6,3.5,11.5,6.3
				c24.8,10.5,26.4,3,26.2,0.8c-0.3-2.2-2.5-3.9-3-1.9c0.4,8-16.2,3.5-22.1-0.1c-7.5-4.6-4.2-5-0.8-4.8c3.4,0.2,3-0.4,0.7-0.9
				c-2.3-0.5-6-1.2-9.3-3.7c-4.2-3.4,4.7-1.3,11.8-1.4c11.2-1.5,5.5-11.8-7-19.2c10.1,8.6,10.3,12.8,7.5,15c-2.8,2.1-9.4,1.2-15.4-2
				c-5.9-3.1-8.5-5.9-5.1-6.6c-5.6-2.6-13.5-6.4-6.4-7.8c7.8-1.2,6.8-6.5-2.7-13.9l1.1-2.5C218.9,257.5,227.6,263.7,235.3,269.8z"/>
		</g>
	</g>
</g>
</svg>
