<svg xmlns="http://www.w3.org/2000/svg" viewBox="0 0 555.37 559.63"><defs><style>.cls-1{fill:gold;}.cls-2,.cls-3{fill:#909090;}.cls-3{fill-rule:evenodd;}</style></defs><title>d20HeroGray</title><g id="Layer_2" data-name="Layer 2"><g id="Layer_1-2" data-name="Layer 1"><g id="Layer_2-2" data-name="Layer 2"><g id="Layer_1-2-2" data-name="Layer 1-2"><path class="cls-1" d="M79,285.18,295.57,40.35S400.1,289.89,412.34,371.81Z"/><path class="cls-2" d="M366.38,231.3l-.92-2.51C365.69,229.48,366,230.34,366.38,231.3Z"/><path class="cls-2" d="M79.53,289.88c4,3.74,22.25,6.91,28.42,7.41-4.2-.33-9.44.56-5.46,3.17,4.93,3.53,23.31,6.62,46.88,9.65q11,1.12,21.2,2.62l47,12.2c-25.53-3.41-39.18-1-31.38,4.27,11.05,7.92,37.22,12.71,46,12.87-4.1,1.94,5,6.2,12.84,8.81,10.34,3.4,22.39,6.49,39.07,5,26.65-3.9,43.39-.05,56.58,1.59a64.66,64.66,0,0,1,6.54,1.15l1.83.48c6.11,1.74,6,3.56-2.62,2.07-38-4.55-40.46-.38-39.12,2.9,1.55,3.39,18.1,9.44,30.32,10.76-3.48,1.86-4.53,3.91-2.4,6.3A19.62,19.62,0,0,0,340.9,385c1.38.7,3,1.42,4.81,2.17q1.37.56,2.93,1.15l1.6.59.83.3.21.08.42.13.87.27c12,3.55,22.75,6.37,31.8,8.39q6.79,1.52,12.3,2.44,2.75.46,5.17.78l1.19.15c.38,0,.71,0,1.06,0h2c10.14-.1,13.5-2.64,11.87-6.87a115.62,115.62,0,0,0,17.16,5.58c1.52.38,3,.73,4.54,1.06l1.12.24.56.12.28.06.14,0h.07a.36.36,0,0,0,0-.07l-.43-2.35c-.6-3.17-1.3-6.42-2.09-9.61a114.48,114.48,0,0,0-5.5-16.91c-2-4.71-4.2-8.14-6.32-9.77a56.56,56.56,0,0,1-12.15-13.7,150.09,150.09,0,0,1-7.53-14.07L404.08,322c5.11,8.29,9.33,13.48,11.71,13.83,1.19.19,1.93-.8,2.14-3a37.58,37.58,0,0,0-1-9.88c-.43-2.33-1-4.62-1.51-6.86l-.86-3.32-.62-2.34a68.52,68.52,0,0,0-2.83-8.31,72.74,72.74,0,0,0-3.68-7.65,77.12,77.12,0,0,0-4.69-7.29c1.19-3.74-.41-11.87-3.1-18.61s-6.52-12.06-9.66-10.29a12.53,12.53,0,0,1-7.45-2.56q-11.11-31.82-23-63.33l.31.77-2.79-7.34q-10-26.44-20.32-52.75l-10.4-26.28-10.85-27L303.71,50.93l-6-14.4-.75-1.8-.19-.45-.09-.22,0-.11s-.05.05-.08.08l-.65.73-2.59,2.92-5.17,5.83L247.89,89,98.25,258.28l1.17.79-.49.56c-12.45,15.08-23.54,30.13-15.5,27.19,5.15-1.88,16.24-16.71,19.47-22-2.2,3.59-3.78,8.67.36,6.31,5.38-2.8,16.46-17.79,29.84-37.43,6.75-10.52,13.47-20.09,20.06-28.83l31.86-36c-20.82,27.27-27.75,46-18.22,40.66,12.07-6.27,28.19-27.42,32.3-35.17-.12,4.53,7.77-1.61,13.67-7.46,7.71-7.68,15.92-17,22.13-32.59,8.59-25.52,19.6-38.71,27-49.73q.72-1.06,1.41-2c.47-.64.81-1.11,1.21-1.63.76-1,1.49-1.85,2.14-2.55A9,9,0,0,1,269.57,76c1.15-.35.61,1.72-2.19,5.63l-1.49,2.41-1.77,2.73q-1.72,2.67-3.19,5c-2,3.16-3.59,5.93-4.93,8.36a62,62,0,0,0-5,10.88c-1.56,5,0,6.12,1.74,6.27,3.73.15,16.61-11.86,23.32-22.15.08,3.95,1.43,5.81,4.53,5a9.36,9.36,0,0,0,1.25-.43l.69-.31.36-.18c.07,0,.1,0,.15.05.35.19.67.36.95.55a3.29,3.29,0,0,1,1.15,1.13c.22.39.13.53.13,0a20.44,20.44,0,0,1,.35-3.34c.29-1.77.8-4.23,1.49-7.24L289.14,82c-.06,5.6.3,7.84,1.63,8.64a3.94,3.94,0,0,0,2.74.27,8.25,8.25,0,0,0,4-1.95c4.18-3.53,7-3.88,9.67-2.16A18.32,18.32,0,0,1,311,90.39l1,1.19c.34.41.72.94,1.09,1.41.74,1,1.52,2,2.33,3l.75,1,4.48,11.21,0,0c-12.83-16.79-18.07-12.83-14.47-.28s8.06,21.8,15.53,30.89c-1.89,7.51,7.83,31.74,14,28,3.27-.2,6.4,1.25,9.29,3.6q13.72,35.82,26.64,71.92a87.24,87.24,0,0,1-5.21-11c10.11,27.76,19.89,55.66,28.56,83.85l1.54,5.06c.49,1.6,1,3.19,1.43,4.8.91,3.21,1.87,6.41,2.75,9.64s1.77,6.46,2.58,9.72l1.2,4.89c.41,1.63.8,3.26,1.14,4.91l1.06,4.93c.37,1.64.61,3.31.92,5l.44,2.49.11.62c0,.19.17.52-.14.35l-1.21-.31L401.9,366l-19.45-5L212.68,317.5,110.9,291l-.75-.2-.06.24,0,.13C91.25,287,73.35,284.12,79.53,289.88Z"/><path class="cls-2" d="M359.88,193.17l.95,2.51C360.59,195,360.27,194.14,359.88,193.17Z"/><path class="cls-2" d="M353.82,67.55l-5.43-2.81C349.86,65.52,351.71,66.48,353.82,67.55Z"/><path class="cls-2" d="M419,374.41c1.13,2.38,3.56,6.22,6.57,11s6.65,10.33,10.37,16c7.43,11.34,15.17,23,19.19,28.69-5.48-7.75-13.08-16-9.07-6.46,1.59,4,5.22,10.63,10.37,19.34l2,3.36,1.66,2.72,3.38,5.42,8.18,12.84.58.9.15.23c0,.07.14.16,0,.2l-.38.3-1.56,1.22a37.76,37.76,0,0,1-3.35,2.36l-1.77,1.17-1.87,1.1c-1.27.73-2.54,1.53-3.91,2.23l-4.17,2.21L451,481.36c-.77.37-1.49.75-2.33,1.12l-2.91,1.29c-2,.87-4,1.8-6.05,2.65-15.14,6.65-30.21,12.28-44.89,17.34-17.7,5.16-35.53,9.92-53.43,14.44l-12.25,3.05-12,2.91c-8,1.93-16,3.79-24,5.63,13.71-3.95,24.91-7.61,33.39-10.74q6.37-2.35,10.76-4.31l5.3-2.18q2.5-1.07,4.56-2c5.49-2.55,8.59-4.52,9.06-5.72s-1.69-1.57-6.76-1.08c-3.64.3-7.71.85-12.11,1.52l-1.66.26-.21,0h-.32l-.4,0-1.62.14c-1.08.11-2.15.22-3.22.37a119.19,119.19,0,0,0-13.07,2.54c-4.48,1.11-9.19,2.47-13.88,3.92s-9.3,3-13,4.33a26.16,26.16,0,0,0,5.46-3.29c1-.84,1.26-1.46,1.19-1.93s-.52-.77-1.19-1a6,6,0,0,0-1.17-.18l-.7,0h-.52s0,0,.06-.05l.31-.24c2.15-1.68,4.1-3.25,5.73-4.69a29.93,29.93,0,0,0,4-4.1,18.22,18.22,0,0,0,2.44-4.34c.7-1.68,1.36-3.69,2.51-6.61a32.86,32.86,0,0,1,3.86-8.09c.93-1.51,2-3.08,3.12-4.69q.86-1.21,1.78-2.44l.46-.62c.06-.09.19-.24.32-.39l.38-.44,1.51-1.74c8-9.21,15.64-17.45,22.81-24.93,14.34-15,26.93-26.9,37.61-37.55,4.11-4.09,7.79-7.58,10.94-10.44l3.23-2.87c10.94-9.53,12.77-8.77-1.67,5.06-61.36,61.48-60.51,66.94-55,65.84,5.94-1.41,37-26.78,56.57-46.58-6.35,12.81,2.54,9.75,37-18.7l4-3.41,4-3.4c5.3-3.73,9.62-10.86,10.8-12.2q5.69-7.73,10.37-14.54a229.1,229.1,0,0,0,14.66-23.91q2.7-5.11,4.52-9.32a54.35,54.35,0,0,0,2.75-7.58c1.23-4.51,1.39-7.83.57-10,2.2-2.31,4.57-5.06,7-8.11,1.22-1.52,2.47-3.12,3.72-4.78s2.45-3.43,3.67-5.22c2.44-3.58,4.88-7.34,7.22-11.12,1.17-1.89,2.32-3.79,3.44-5.68s2.12-3.85,3.12-5.74c8.13-15,12.9-28.8,10.47-31.63a14.4,14.4,0,0,1-2.29-7.53,34.78,34.78,0,0,1,1.07-9.64c.41-1.77.92-3.61,1.51-5.52s1.17-4,1.85-6,1.39-4.26,2.15-6.49c.37-1.12.78-2.24,1.14-3.4l1.08-3.55,2.87-6.54c1-2.18,1.78-4.43,2.67-6.65l1.41-3.6c.49-1.21.86-2.46,1.29-3.69l1.26-3.7c.42-1.23.86-2.46,1.18-3.72-.14,1.22-.37,2.39-.59,3.54l-.61,3.36c-.38,2.18-.72,4.26-1.13,6.17l-.28,1.4c-.09.47-.18.92-.24,1.29l-.35,2.24q-.31,2.13-.47,3.85c-.56,4.49-.24,6.82.81,7.19s2.82-1.23,5.13-4.56c.56-.85,1.13-1.83,1.74-2.9l.93-1.7.48-.91.25-.48.31-.65c.83-1.74,1.77-3.69,2.55-5.83s1.64-4.41,2.5-6.82c.46-1.3.95-2.59,1.37-3.88l1-3.84a63.09,63.09,0,0,0,1.72-7.53c.39-2.45.78-4.88,1.06-7.29.16-1.2.3-2.4.42-3.61.06-.6.13-1.2.17-1.82.08-.19-.15-.21-.25-.31l-.36-.25-.73-.5q-5.8-4-11.5-7.71l-1.42-.93a11.77,11.77,0,0,0-1.49-.9l-3.28-1.64L529.82,137l-6.43-3.1-1.46-.69-1.08-.49-2.17-1q-4.33-1.91-8.7-3.7c-5.83-2.39-11.73-4.63-17.84-6.78-10.72-10.67-64-38-64.71-30.39-2.76,1.38-7.23,1.35-12.68.4l-111-57.71L273.13,37l1.87-.24-17.81,2L56.23,61.4,82.86,280.88,18.52,354,9.64,364.12l-2.21,2.54-1.11,1.27-.55.63s0,.05,0,.08l.07.08.13.16.27.33,4.29,5.2q4.31,5.18,8.7,10.31l4.42,5.11,4.29,4.89q16.23,18.39,33.24,36.06T96,465.3c5.92,5.65,12,11.12,18.07,16.61s12.29,10.82,18.63,16c12.6,10.47,25.5,20.61,39,29.92A372,372,0,0,0,214,553.43l10.25,5.24-5.74-10q-27.73-48.37-54-97.68c-17.42-32.86-34.41-66-49.78-99.75l-1.1,1-.71-1.55c-9.51-20.17-18.14-40.12-23-53.36-1.31-3.28-2.17-6.2-3.08-8.52q-.35-.87-.58-1.65l-.49-1.44a19.74,19.74,0,0,0-.89-2.16c-1.11-2.19-1.89-1.6-2.15,3.1a18.25,18.25,0,0,0,0,2.61c.09,1,.23,2,.4,3.19s.37,2.43.65,3.74.64,2.66,1,4.09a165.15,165.15,0,0,0,6.27,18.67,323.09,323.09,0,0,0,14.73,31.71A72.64,72.64,0,0,0,99,339.85c-1.79-2.17-2.77-2-1.39,3.12,1.6,6.44,7.14,19.32,15.85,36.32s20.57,38.1,34.42,61.32q22.25,36.26,41.51,68.3,11.88,21.4,24,42.65l3.09-3.27c-18-9.13-35-20.18-51.27-32.11,19.67,13.56,37.9,23.11,52.79,29.11l-7.53,8c-10.66-15.36-18.67-25.93-23.38-30.72s-6.07-3.79-3.17,4c3.28,9.14,8.85,20.84,15.5,33.13l24.34-25.75c-11.47-6.37-23.67-13.49-34.27-20.16-1.34-.79-2.64-1.63-3.9-2.46l-3.72-2.39-6.88-4.34c-4.24-2.8-7.87-5.11-10.61-6.74,7.88,2.31-8.33-12.14-21.88-24.55-8.87-8.16-18.48-16.8-29.32-26.25s-23.13-19.42-37.48-30.24c-11.56-8.25-21.8-16.41-31-24.3q-3.44-3-6.68-5.88l-1.61-1.45-.78-.7-.6-.5-2.4-2.07c-3.19-2.8-6.36-5.77-9.43-8.79L21,370.77l-1.13-1.15-.56-.58-.28-.29c-.08,0,0-.09,0-.14l.1-.14L22.44,364c2.21-3,4.46-5.89,6.69-8.77L32.46,351l3.85-4.83,7.3-9.22C62.75,312.57,72,306.43,55,327.22c-6.68,8.56-12.5,16.13-17.56,22.83l-1.86,2.47-.43.58-.32.45-.63.89-2.32,3.34c-1.45,2.11-2.7,4-3.78,5.68s-2,3.18-2.77,4.5l-.28.49c-.05.16-.31.31,0,.48l1,.92L28,371.5a63.41,63.41,0,0,0,6,4.53c3.18,2,4.9,2.47,6,2.31a2.24,2.24,0,0,0,1.75-1.72,7,7,0,0,0-.71-3.75c-.3-.77-.67-1.59-1.1-2.42q-.32-.63-.67-1.27l-.09-.16,0-.08,0,0,0,0,.36-.32.71-.63a55.88,55.88,0,0,0,5.14-5.28L48.44,359l3.67-4.38c2.4-2.9,4.69-5.77,6.82-8.52-4.74,13.49,3.7,9.37,34.46-23.06l4.78-5.16,2.3-2.51,3.63-4.05q8.74-9.8,16.57-18.76c-1.24-9.93-2.47-19.25-3.68-27.92-.18-1.32-.23-1.57-.32-2.16l-.26-1.59-.53-3.09q-.53-3-1.08-5.84a189.44,189.44,0,0,0-4.58-19c-3.18-10.39-6.57-16.28-10-18.11,1.37-25.11-7.31-77.25-14.65-79-5.47-1.93-8.92-7.56-11.71-15.49-1.4-4-2.64-8.51-3.88-13.46l-1.9-7.71-.49-2-.48-1.88-1-3.83L65.46,89,62.74,66.55l3-.33-.09,0c-.88.23-1.72.46-2.39.68C66,78,68.23,85,70.14,89.25s3.43,5.89,4.64,6,2.1-1.26,2.69-3.37a30,30,0,0,0,.76-8.54c0-1.63-.09-3.19-.17-4.69,3.42-.18,6.45-.43,9.35-.79,1.45-.18,2.87-.39,4.28-.63l2.12-.38.53-.1.27-.05.49-.08,2.09-.34c11.14-1.82,21.91-4.11,33-7,14.85,2.88,74.35-4.12,70.66-10.86,1.9-3.36,7.25-6.38,14.38-9.05l87.36-9.82L379,79.27c-9.65-4.13-18.7-8.46-25.14-11.72L531.88,159.8l2.54,1.31.16.08c.07,0,.1.06.08.13l0,.36c0,.24-.06.47-.09.71-.07.47-.11.94-.2,1.41l-.53,2.8-.68,2.77c-.95,3.68-2.06,7.33-3.34,10.92-.62,1.8-1.22,3.61-1.95,5.38l-2.24,5.7c-.72,2-1.64,3.85-2.46,5.77l-2.52,5.75c-3.55,7.6-7.16,15.17-11.12,22.59l-2.91,5.59c-1,1.87-2,3.68-3,5.52l-6.16,11c-2.06,3.67-4.29,7.24-6.42,10.87s-4.29,7.24-6.5,10.83c-4.51,7.12-9,14.26-13.53,21.35l-14,21.05c-4.77,7-9.64,13.84-14.46,20.76s-9.84,13.7-14.79,20.54l-7.46,10.22-1.77,2.43a11.39,11.39,0,0,1-.88,1.14l-1.08,1-4.62,4.12L374,405.65l-76.49,68.23-40.79,36.39-40,35.91-5,4.48-2.49,2.24L208,554l-.31.28-.16.14c-.07.06-.11.1,0,.06l.83-.17,13.31-2.72q13.28-2.75,26.49-5.6c17.62-3.8,35.21-7.7,52.84-11.85q12.61-2.94,25.22-6l12.6-3.12,11.85-3c15.66-4,31.27-8.25,46.81-12.78s31-9.39,46.25-14.91l5.7-2.15,2.87-1.09c1-.37,2-.81,3-1.21l6-2.47c2-.86,3.92-1.78,5.89-2.67,1-.46,2-.87,2.92-1.36l2.85-1.47c1.9-1,3.82-1.93,5.64-3l2.77-1.61c.46-.27.93-.53,1.38-.81l1.33-.9,2.67-1.8.67-.45.17-.11c.05,0,.14-.07.08-.13l-.13-.33-.53-1.33q-6.14-10.83-12.39-21.6l-6.21-10.64-5.92-10-.91-1.53-.22.13-.09.1c-11.57-18.75-23.35-36.62-32.09-47.24-4.3-5.36-7.95-8.77-9.87-9.76S417.27,370.87,419,374.41Z"/><path class="cls-2" d="M275,36.76l6.08-.69C279.42,36.23,277.36,36.47,275,36.76Z"/><path class="cls-2" d="M532.36,158.94l1.14,1.37C533.21,159.93,532.82,159.46,532.36,158.94Z"/><path class="cls-2" d="M299.57,42.48c3.84-.41,10.31-10.08,11.3-12.83a6.22,6.22,0,0,0-.51,3.5,1.67,1.67,0,0,0,2.1,1.43c1.61-.18,3.28-1.87,5.35-5,1-1.57,2.2-3.53,3.56-5.88l2.18-3.84.6-1.06c.05-.07.09-.22.16-.23l.21.06.43.11,1.8.47a63.15,63.15,0,0,1,9.62,2.64l11.41,7,2.85,1.75,3.08,2,6.19,3.94A68.31,68.31,0,0,0,350,33.43a10.85,10.85,0,0,0-1.93-.28q-.87-.06-1.63-.05a11.15,11.15,0,0,0-2.64.32c-3,.78-3.82,2.88-3,5.2a12.68,12.68,0,0,0,1,2.41,11.65,11.65,0,0,0,.64,1l.35.48.18.23a1.73,1.73,0,0,0,.24.26A42.12,42.12,0,0,0,349.88,48c4.76,2.88,9.73,4.86,12.44,5.37-3.33,1.33.64,6.05,4.53,9.16,5.07,4.13,11.24,8.19,22.27,8.68A61.82,61.82,0,0,1,410.4,74c5.42,1.72,9.52,3.85,13.28,5.41a23.86,23.86,0,0,1,3.55,1.88l.93.66c3,2.35,2.18,3.93-2.53,1.47a91.44,91.44,0,0,0-13.07-4.51,27.52,27.52,0,0,0-7.63-1.06c-3.6.16-4.54,1.78-4.82,3.31-.47,3.2,7.2,10.47,14.17,13.13-5.89,2.39-6.09,6.67,2.32,14.71,5.54,5,10.49,7.57,14.68,8.36a11.91,11.91,0,0,0,10.64-3c2.61,7.27,14.7,13.74,19.62,8.59,6.66-6.6,10.84-5.28,16.32-3.85l5.8,4.68c-10.93-2-13.27,3.3-8.48,8.76a37.65,37.65,0,0,0,3.89,4,27.39,27.39,0,0,0,4.06,3.08,30.27,30.27,0,0,0,9.7,3.73c-.09,2.95,2.79,6.88,6.19,9.39s7.26,3.67,9.44.84a13.14,13.14,0,0,1,6.36-2.51l3.6,3.51c.6.58,1.2,1.17,1.77,1.78L521.9,158c1.07,1.07,2.09,2.18,3.11,3.3.52.55,1,1.12,1.51,1.69l.74.86.36.44a2.39,2.39,0,0,1,.26.5,16,16,0,0,1,1.22,4.35l.27,2.25.15,2.27c.05,1.53.11,3,.08,4.58s-.06,3.31-.11,5v-.49c0,1.55-.14,3.1-.2,4.66-.71,11.21-2.1,22.47-3.65,33.7s-3.37,22.45-5.29,33.65c-3.84,22.41-8.14,44.75-12.64,67.06-9,44.62-18.86,89.09-29.16,133.45l1.39.21-.1.44c-2,11.66-3,23,2,19.52,3.23-2.24,4.31-13.48,4.1-17.31.14,2.61,1.6,6,3.71,3.66,2.9-2.84,3.88-14.19,4.13-28.78a183.13,183.13,0,0,1,.68-21.5l6.28-28.42c-2,20.76,2.52,33.34,7.42,28,6.46-6.45,8-22.62,7.11-28.11,2.4,2.68,5.47-2.76,7.05-7.58,2.06-6.31,3.61-13.73,0-24.27-7.16-16.89-5.59-27.16-5.71-35.34-.1-8.38,3.28-10.61,2.86-3.44.55,23.57,4.86,25.31,7.93,24.61s6.93-10.95,6.61-18.57c4.55,4.51,8.57,3,12.5-8.45,4.62-14.75,1.35-23.21-5.82-26,5.53-5.71,5.71-20.11-1.16-22-10-3.14-9.72-8.17-11.71-14.66-.08-.25-.14-.51-.21-.76l1.17-7.23v0c3.64,13.09,10,13.19,12.63,5.5s2.78-14.08.15-21.41c2.51-1.6,4.24-6.45,4.38-10.93s-1.28-8.56-4.85-8.54a13.81,13.81,0,0,1-6.93-4.85c.4-3.87.7-7.76,1-11.66.1-2,.22-3.91.26-5.87,0-1,.06-2,.05-3s0-2,0-3.06a42.18,42.18,0,0,0-1.66-12.26c-.19-.48-.42-.94-.63-1.42a7.45,7.45,0,0,0-.92-1.24c-.67-.79-1.3-1.6-2-2.35-1.39-1.54-2.79-3.07-4.25-4.54a29.85,29.85,0,0,1,6.37,5.16c-.78-1-1.66-1.84-2.48-2.76s-1.69-1.81-2.56-2.7L524.86,151c-.79-.82-1.62-1.58-2.43-2.38-3.23-3.18-6.57-6.22-9.89-9.27s-6.77-6-10.15-8.93L492,121.74c-7-5.63-14-11.28-21.18-16.68S456.46,94.32,449.23,89c-29.07-21.06-59.07-40.77-89.51-59.69l-3.36-2.14c-1.14-.72-2.19-1.41-3.42-2.16l-7.16-4.4-14.33-8.81-7.16-4.4-1.79-1.1c-.08-.09-.13,0-.19.08l-.18.2-.35.4-.7.8L318.26,11,307,23.78l-.33.38.16.2.09.09c-1,1.23-1.9,2.45-2.79,3.64s-1.66,2.27-2.41,3.37a47.86,47.86,0,0,0-3.52,5.86C296.57,40.7,296.57,42.84,299.57,42.48Z"/><path class="cls-2" d="M529.5,182.73l0-1.58C529.51,181.58,529.49,182.11,529.5,182.73Z"/><path class="cls-2" d="M40.52,91.27,41,89.78C40.83,90.18,40.68,90.69,40.52,91.27Z"/><path class="cls-2" d="M7.11,370.67c2.57-2.85.88-13.28-.25-16.77.77,2.37,3,5.09,4.49,2.52a7.61,7.61,0,0,0,.9-3.71,54,54,0,0,0-.25-6,169.48,169.48,0,0,0-2.73-17.47A102.28,102.28,0,0,1,7.06,317l.83-13.88c.33-4.63.82-9.24,1.22-13.86,1.66,14.9,7.24,22.36,10.6,17.57,2.58-3.4,3.87-8.82,4.21-14a39.41,39.41,0,0,0-1-12.73c1.37,1.13,2.6.36,3.69-1.26a20.71,20.71,0,0,0,2.53-6.36,34.13,34.13,0,0,0,1.05-9.89,29.39,29.39,0,0,0-.93-5.88A37.86,37.86,0,0,0,26.9,250,59.28,59.28,0,0,1,20,230.58c-.77-5.36-.6-9.74-.83-13.61a21.74,21.74,0,0,1,.1-3.83l.18-1.07c.75-3.57,2.54-3.47,2.44,1.6.76,11.15,2.23,17,4,20.07s3.62,3.19,5.11,2.82c3-.9,6.33-10.35,5.67-17.42,4.76,4.13,8.61,2.59,12.14-7.87,4.26-13.46.91-21.23-6.19-24,5.56-5.11,5.86-18.3-.84-20.47-8.84-3.12-9.37-7.24-10.59-12.59l1.58-6.93c3.15,10.26,8.87,10.17,11.6,3.76,3.13-6.86,3.71-12.68,1.7-19.78,5.31-2.34,8.8-16.69,1.81-17.91a13.53,13.53,0,0,1-5.2-4.34l2.67-9.26c.89-3.09,1.9-6.12,2.85-9.19L49.61,86l1.57-4.52,1.57-4.52c.26-.79.53-1.39.79-2.08l.8-2-.13.41.42-1.07c.36-.89.68-1.8,1.08-2.67a15.53,15.53,0,0,1,4.89-5.26,49.18,49.18,0,0,1,6.23-3.7c2.23-1.09,4.69-2.21,7.12-3.18s4.93-1.92,7.45-2.79c10.07-3.5,20.47-6.31,30.92-8.88,20.94-5.1,42.2-9.15,63.5-12.85,42.65-7.31,85.59-13.1,128.61-18.1l-.27-1.38.43-.05c11.09-2,21.59-4.71,16.84-8.31-3.06-2.31-13.48.37-16.85,1.84,2.29-1,4.83-3.48,2.07-4.71-3.49-1.79-14,1-27.12,5.68a171.42,171.42,0,0,1-19.44,6.58q-13.74,1.79-27.46,3.73c19.17-5.2,28.92-13.67,22.54-16.5-7.93-3.9-22.93.14-27.52,2.88,1.59-3.17-4.32-4.19-9.17-4A32.28,32.28,0,0,0,196.8,8.84c-12.59,12.59-22.22,14.75-29.44,17.78-7.38,3.08-10.57.75-4.07-1.44,10.35-4.47,15.56-7.82,18-10.41s2-4.42,1.14-5.72c-1.82-2.64-12.21-2.61-18.9.41,2.41-5.86-.38-9.07-12-8.61-14.91,1.06-21.32,7.27-21.09,14.95-3.57-1.5-8.61-.93-12.63.91s-7,5-6.5,8.5c1.11,10.43-3.42,12.09-8.28,16.49-.19.17-.38.33-.58.49-2.26.58-4.5,1.21-6.75,1.83l0,0c4.92-4.32,6.84-7.88,6.5-10.34s-2.92-3.77-6.86-3.39c-7.9.66-13.74,3.34-19,9-2.55-1.54-7.73-.77-11.9,1.44a16.34,16.34,0,0,0-2.85,1.89,14.22,14.22,0,0,0-2.16,2.3c-1.3,1.74-1.55,3.43-.44,4.84a14.74,14.74,0,0,1,.62,4.4,17.69,17.69,0,0,1-.47,4,30.81,30.81,0,0,0-5.87,4.65,13.77,13.77,0,0,0-2.21,3,11.73,11.73,0,0,0-.79,1.7l-.72,1.73c-2.15,5.1-3.62,9.76-5.33,14.58C42.6,88.68,41,93.49,39.6,98.33a26.7,26.7,0,0,1,.92-7.06c-1.3,4.09-2.46,8.21-3.61,12.33l-1.75,6.18c-.58,2.06-1.09,4.14-1.64,6.2-1.07,4.14-2.19,8.27-3.22,12.42l-3,12.46c-1,4.15-1.93,8.33-2.86,12.49s-1.87,8.34-2.76,12.51l-2.54,12.56-1.27,6.28c-.42,2.09-.78,4.2-1.17,6.3A1001,1001,0,0,0,2.81,292.51l-.69,7.56c-.22,2.52-.32,5.05-.49,7.58L.72,322.81c-.19,2.52-.19,5.06-.27,7.59L.26,338l-.19,7.6c0,1.27-.09,2.53-.07,3.8l.06,3.8v.45H.45C1.32,364.78,3.15,375.09,7.11,370.67Z"/><path class="cls-2" d="M54.21,73.24l-.5,1.28C53.86,74.17,54,73.74,54.21,73.24Z"/></g></g><path class="cls-3" d="M307.84,284.42a16.81,16.81,0,0,1-.71,10.33c-.18.43-.38.87-.6,1.29s-.49.81-.77,1.21-.58.81-.89,1.21-.7.73-1.08,1.09-.79.71-1.21,1.06-.9.61-1.39.9-1,.56-1.52.83-1.08.43-1.65.62-1.16.36-1.77.52-1.21.22-1.85.3-1.28.13-1.94.17-1.29,0-1.95-.06-1.33-.11-2-.2-1.29-.24-1.94-.4-1.31-.33-2-.53-1.23-.43-1.86-.68a36.14,36.14,0,0,1-12.43-8.6,47.5,47.5,0,0,1-7.81-11.05,52.5,52.5,0,0,1-4.29-11.75,58,58,0,0,1-1-5.93,55,55,0,0,1-.37-5.89A49,49,0,0,1,257,253a48.29,48.29,0,0,1,.87-5.78A53.39,53.39,0,0,1,268.22,225a54.33,54.33,0,0,1,4.56-5.12c.85-.83,1.8-1.67,2.72-2.47l1.4-1.18c.47-.39,1-.79,1.56-1.17q1.6-1.16,3.24-2.21c1.19-.72,2.44-1.42,3.68-2.07.63-.32,1.23-.64,1.89-.94s1.4-.61,2.1-.89,1.41-.55,2.12-.81,1.37-.5,2.2-.73c1.57-.45,3.15-.85,4.73-1.17.4-.08.78-.16,1.19-.23l1.28-.18q1.28-.17,2.56-.29a48,48,0,0,1,10.46.23,46.56,46.56,0,0,1,10.1,2.62,45,45,0,0,1,4.61,2c1.44.77,2.83,1.6,4.17,2.47a34.5,34.5,0,0,1,3.65,2.72c1.12.94,2.26,1.93,3.21,2.9s1.79,1.95,2.63,2.94q.62.75,1.21,1.5c.36.49.68,1,1,1.44a38.78,38.78,0,0,1,3.26,5.65q.64,1.35,1.19,2.69c.37.9.6,1.69.87,2.52q.48,1.49.86,2.94c.21.93.36,1.82.5,2.71s.27,1.77.34,2.6.07,1.61.08,2.39,0,1.54,0,2.29-.14,1.41-.22,2.1a25.75,25.75,0,0,1-.74,3.85c-.33,1.19-.7,2.31-1.09,3.37s-.91,2-1.4,2.9a24.38,24.38,0,0,1-3.31,4.67,23.28,23.28,0,0,1-7.57,5.59,24.06,24.06,0,0,1-3.76,1.38,26.06,26.06,0,0,1-3.57.69,21.76,21.76,0,0,1-9.87-.87c-1.76-.73-1.72-1.44,1.23-2a16.74,16.74,0,0,0,5.27-1.71c.75-.48.57-.8-.06-1a33.23,33.23,0,0,0-6.2-.16,92.29,92.29,0,0,1-17.07-2.24l-5.84-1.24-2.32-.47c-.72-.13-1.4-.23-2-.32s-1.15-.15-1.63-.2-1,0-1.34,0h-.51l.68-.07c.49,0,1-.07,1.48-.13,1-.16,2-.28,3-.5s1.86-.41,2.61-.65c.38-.11.75-.24,1.11-.38s.71-.21,1-.33c.67-.22,1.32-.56,1.87-.78a13.34,13.34,0,0,0,1.45-.68c.42-.24.77-.45,1-.56.5-.27.71-.41.55-.31l-.52.3c-.14.08-.29.14-.51.27l-.34.2-.09.05,0,0,.05,0,.31-.15-.07,0s-.08,0,.07-.05a6.06,6.06,0,0,1,.56-.3,10.83,10.83,0,0,0,1-.6c.31-.19.64-.49.87-.62a8.2,8.2,0,0,0,.69-.51c.22-.18.42-.36.61-.54s.3-.25.44-.39a6.19,6.19,0,0,0,.66-.71,2,2,0,0,1,.2-.24l.14-.16.17-.23,1.12-1.6c.42-.6.84-1.18,1.28-1.72a11.1,11.1,0,0,1,2.48-2.34,16,16,0,0,1,2.37-1.16,16.37,16.37,0,0,0,2.63-1.33,12.5,12.5,0,0,0,3.19-3.06,14.54,14.54,0,0,0,4-8.43,12.84,12.84,0,0,0-.64-4.88,15.84,15.84,0,0,0-2.85-5,17.53,17.53,0,0,0-2.31-2.29,20.79,20.79,0,0,0-2.84-2.07,26.05,26.05,0,0,0-7-2.91,30.93,30.93,0,0,0-8-1,37.35,37.35,0,0,0-3.91.29c-.65.08-1.33.17-2,.29s-1.2.25-1.81.4a38.6,38.6,0,0,0-12.44,5.46,40.84,40.84,0,0,0-4.53,3.52q-1,.9-1.93,1.82c-.6.6-1.12,1.2-1.66,1.8s-1,1.19-1.51,1.78-.86,1.15-1.26,1.71a33.58,33.58,0,0,0-2.06,3.2c-.57,1-1.07,1.93-1.48,2.77s-.69,1.57-.94,2.2-.47,1.23-.68,1.81-.33,1.13-.47,1.66a28.73,28.73,0,0,0-.59,2.82,7,7,0,0,0,.13,3.23c.24.48.66.32,1.23-.59a17.34,17.34,0,0,0,1-2c.4-.85.86-1.9,1.37-3.18a39.8,39.8,0,0,1,7-12,36.42,36.42,0,0,1,10.42-8.46c1-.53,2-1,3-1.44s2.12-.81,3.15-1.13a26.6,26.6,0,0,1,3.19-.8,28.93,28.93,0,0,1,3.16-.46,27.52,27.52,0,0,1,6.17.13c1,.13,1.92.31,2.79.51a25.33,25.33,0,0,1,2.58.84,23.19,23.19,0,0,1,2.25,1,22.49,22.49,0,0,1,1.94,1.21,13.78,13.78,0,0,1,2.89,2.59,10,10,0,0,1,2.46,5,5.89,5.89,0,0,1-2.54,6.08c-4.23,2.76-6.28,3.82-8.54,3.95a9.65,9.65,0,0,1-1.75,0c-.59,0-1.24-.12-1.9-.18s-1.34-.13-2-.22l-2.08-.15a12.77,12.77,0,0,0-3.34.25,4,4,0,0,0-1.6.69c-.52.48.11.87,1.58,1.15a17,17,0,0,1,2.37.62,8.33,8.33,0,0,1,2.32,1.28,7.84,7.84,0,0,1,2.65,5,4.3,4.3,0,0,1,0,1.72,1.36,1.36,0,0,1-.28.53,1.56,1.56,0,0,1-.46.43,6.37,6.37,0,0,1-1.52.54c-.63.15-1.41.25-2.25.43s-1.85.34-2.88.62c-.52.14-1.08.28-1.64.45s-1.12.39-1.7.61a24,24,0,0,0-7.16,4.3,22.33,22.33,0,0,0-4.39,7.33,23.76,23.76,0,0,0-1.32,8.6,22.73,22.73,0,0,0,2.08,8.61,18.14,18.14,0,0,0,5.58,6.9,12.62,12.62,0,0,0,7.72,2.62,8.39,8.39,0,0,0,5.87-2.65,8,8,0,0,0,1.88-5,10.76,10.76,0,0,0-.25-2.62,13.92,13.92,0,0,0-.81-2.58,12.4,12.4,0,0,1,.23,2.41,9.68,9.68,0,0,1-.09,1.17,8.12,8.12,0,0,1-.21,1.06,7.08,7.08,0,0,1-.84,2,5.12,5.12,0,0,1-.63.81,5.06,5.06,0,0,1-.76.72,6,6,0,0,1-1.86,1,11,11,0,0,1-1.07.27c-.35,0-.72,0-1.09,0a7.92,7.92,0,0,1-2.24-.35,12,12,0,0,1-2.12-1,13.65,13.65,0,0,1-5.51-7.1,17.64,17.64,0,0,1-.85-8.25,14.86,14.86,0,0,1,2.45-6.65,11.26,11.26,0,0,1,2-2.28,10.07,10.07,0,0,1,2.29-1.55,10.51,10.51,0,0,1,9.63.38,19.14,19.14,0,0,1,6.21,4.46c1.07,1.4,1,2.54-.41,3.92,3.08.09,6.81.4,9,.67.57,0,1,.09,1.37.13a1.41,1.41,0,0,0,.41,0h.1l-.18,0L318,274c-.58.09-1.25.17-2,.33-.36.07-.73.18-1.12.27s-.8.17-1.23.29-.87.26-1.33.43-.92.28-1.4.46-1,.41-1.49.63a13.24,13.24,0,0,0-1.5.68q-.39.21-.77.44c-.23.11-.46.23-.69.37a11.92,11.92,0,0,0-1.35.91,8.26,8.26,0,0,0-1.12.83l-.93.84q-.2.2-.4.43l-.19.24c-.06.08-.09.1-.14.15a3.93,3.93,0,0,0-.49.67,1.85,1.85,0,0,1-.14.22l-.11.19c0,.07-.07.16-.1.22a0,0,0,0,0,0,0s0,.06,0,0,0,0,0,0,0,0,0,0v-.13a2,2,0,0,0,0-.23,1.59,1.59,0,0,0,0-.19l0-.39a4,4,0,0,0-.13-.76,6.25,6.25,0,0,0-.25-1.09l-.18-.51q-.1-.34-.22-.65a9.45,9.45,0,0,0-.55-1.18,11.21,11.21,0,0,0-.68-1.34q-.19-.31-.38-.6c-.13-.19-.27-.46-.41-.67-.56-.91-1.19-1.62-1.84-2.49q-.49-.61-1-1.13c-.34-.36-.67-.76-1-1.1s-.69-.67-1-1-.67-.64-1-.92a36.43,36.43,0,0,0-6.67-4.52l-.8-.38-.17-.09-.09,0h0s0,0,0-.06,0-.18.11-.28a37.78,37.78,0,0,1,14.31,7.95A26.64,26.64,0,0,1,307.84,284.42Z"/><path class="cls-3" d="M236.16,229.92a57.48,57.48,0,0,0-8-5.82,18.81,18.81,0,0,0-3.92-1.74,11.94,11.94,0,0,0-1.89-.34,5.91,5.91,0,0,0-1.74.23,8.7,8.7,0,0,0,1.17-.42l.56-.26.42-.18a5.32,5.32,0,0,0,.81-.48,3.36,3.36,0,0,0,.5-.33l.23-.21a1.13,1.13,0,0,1,.11-.09,1.11,1.11,0,0,0,.18-.2s0,.05,0,.06,0,0-.09.19a1.9,1.9,0,0,0-.14.42l0,.1-.06.19q-.06.2-.1.41a4.08,4.08,0,0,0-.08.79,9.94,9.94,0,0,0-.1,1.18,7.78,7.78,0,0,0,.06,1.16c0,.5,0,1,.08,1.56a14,14,0,0,0,.24,1.52l.09.37c-.51-2.91,1.16,6.59-1.14-6.52h0v.08a5.94,5.94,0,0,0,.85,1.69,17.9,17.9,0,0,0,2.88,3.28,57.47,57.47,0,0,0,12,8.13l2,1.07.61.31.18.08c.22.16.44.28.64.43a7.55,7.55,0,0,1,1.06,1,9.82,9.82,0,0,1,1.49,2.53,18.58,18.58,0,0,1,.41,11.75,28.21,28.21,0,0,1-5.58,10.53c-5.75,7.4-17.08,11.15-25.75,12.64a40,40,0,0,1-9.84.71c-1.87-.23-2-.89.8-1.64,11.14-2.89,2.2-2.31-1.36-2.05-14.15.61-22.62-1.35-27.34-4.15s-5.67-6.23-4.93-8.08,3.07-3.27,6.09-3.74a17.56,17.56,0,0,1,10.28,1.74c-1.43-4.5,6.07-5.75,11.5-4.39s5.29,3.61,12.8,3.48c13.47.42,20.18-3.25,23.59-7a12.51,12.51,0,0,0,3.39-9.34,4.19,4.19,0,0,0-1.59-3.06c-.69-.4-1.4-.16-1.6,1.49.33,6-3.61,10.53-8.63,13s-11,3.06-14.35,1.76c-8.46-3.31-5-7.2-1.49-9.45s3.19-3.07.7-2.38-6.43,2.23-10-.53c-2.33-2-1.05-3.78,1.8-5.67s7.28-3.87,11.32-6.06a49.81,49.81,0,0,0,7.06-6.32c.71-.77,1.11-1.22,1-1.54a.5.5,0,0,0,0-.14l0-.16s-.06-.12,0-.19l.25-.22.26-.26.19-.22.22-.26c.07-.09.1-.15.16-.24l.2-.27a2.25,2.25,0,0,1,.17-.24,2.59,2.59,0,0,1,.5-.49,2.17,2.17,0,0,1,.74-.33,4.26,4.26,0,0,1,1-.05,11.92,11.92,0,0,1,4.58,2c3.14,2,6.32,4.34,9.86,5.77l-4.26-4.24c-1.39-1.36-2.64-2.56-4-3.66a14,14,0,0,0-4-2.44,6.42,6.42,0,0,0-3.54-.2,10.2,10.2,0,0,0-1.37.46c-.22.09-.41.15-.62.24L223,217a5.4,5.4,0,0,0-1,.52c-.29.18-.57.37-.84.58a45.33,45.33,0,0,0-3.48,3,22.6,22.6,0,0,1-8.48,5.3,13.08,13.08,0,0,1-9.64-.38c-3.05-1.45-5.11-3.46-5.68-5.91s.35-5.38,3.57-8.39a21.71,21.71,0,0,1-4-2.74,8.24,8.24,0,0,1-1.55-1.89,6.11,6.11,0,0,1-.71-2.52,5.62,5.62,0,0,1,.12-1.57,9.39,9.39,0,0,1,.54-1.82,16.39,16.39,0,0,1,1.14-2.15,22.23,22.23,0,0,1,2-2.55,30.83,30.83,0,0,1,8-6.23,35.08,35.08,0,0,1,7.3-3,33.18,33.18,0,0,1,4.63-1l1.24-.16.63-.06.31,0h.22q.83,0,1.69,0a46.25,46.25,0,0,1,17.42,4c.87.41,1.7.83,2.55,1.31s1.73,1.07,2.56,1.65,1.64,1.19,2.4,1.82,1.45,1.31,2.14,2,1.35,1.41,2,2.14,1.07,1.38,1.57,2.1,1,1.44,1.43,2.18.72,1.3,1.06,2,.65,1.33.95,2c.16.36.26.62.37.91l.32.86q.32.86.6,1.73l.27.85.2.74c.25,1,.51,2,.71,2.92l.46,2.52c.08.44.13.8.18,1.15l.15,1.09.15,1.08.12,1,.45,3.61.23,1.63.24,1.56c.16,1,.35,2,.56,2.88a40.2,40.2,0,0,0,1.54,5.25,38.79,38.79,0,0,0,5.14,9.48c-.4,1.47-.8,2.91-1.25,4.34l-.69,2.19-.38,1.14-.53,1.52a7.09,7.09,0,0,0-1.47-2.16c-.54-.6-1.07-1.2-1.61-1.77-1.08-1.15-2.17-2.27-3.25-3.37-2.17-2.2-4.34-4.34-6.49-6.44C244.68,237.64,240.44,233.57,236.16,229.92Z"/><path class="cls-3" d="M220.65,253.36c38.76,30.41,34.32,41.25,23.51,43.38-12.53,2.84-44.19-11.67-33.59-8.41s2.35-.07-.95-1.38c-26.07-10.87-29.88-16.72-28.18-17.55s9,1.41,15.23,5.54c-.93-2.35,6-.06,11,2.54s4.57,3.53,11.51,6.3c24.77,10.51,26.4,3,26.15.82s-2.54-3.94-3-1.86c.37,8-16.23,3.53-22.14-.08-7.54-4.6-4.16-5-.81-4.85s3-.37.72-.87-6-1.21-9.26-3.68c-4.25-3.38,4.74-1.3,11.78-1.42,11.15-1.5,5.49-11.75-7-19.25,10.07,8.63,10.26,12.82,7.48,15s-9.44,1.15-15.36-2-8.5-5.9-5.12-6.6c-5.59-2.58-13.51-6.37-6.4-7.83,7.77-1.19,6.76-6.51-2.66-13.92l1.14-2.48C204.26,241,213,247.3,220.65,253.36Z"/></g></g></svg>