<svg xmlns="http://www.w3.org/2000/svg" viewBox="0 0 62.52 50.37"><defs><style>.cls-1{fill:gold;}.cls-2{fill:#fff;}.cls-3,.cls-4{fill:none;}.cls-3,.cls-4,.cls-5{stroke:#000;stroke-miterlimit:10;}.cls-3,.cls-5{stroke-width:0.5px;}.cls-4{stroke-width:0.75px;}.cls-5{fill:#830303;}</style></defs><title>shield</title><g id="Layer_2" data-name="Layer 2"><g id="Layer_1-2" data-name="Layer 1"><path d="M14,47.21l-2.12,1.07s-.6,2.22,2.06,2.08L15,48.25,51.35,12.07s2.29.34-1.85,4.21c0,0,8.4.72,8.43-8.35,0,0-1.87,3.74-4,2.54,0,0,.3-.55,0-.84L62.52.24,53.1,8.73s-.59-.33-.93,0c0,0-.54-1.87,2.59-4.06,0,0-8.73-.07-8.42,8.4,0,0,4-3.94,4.24-1.76Z"/><path d="M48.54,47,50.66,48s.6,2.22-2.06,2.08L47.51,48,11.17,11.83S8.88,12.17,13,16c0,0-8.4.72-8.43-8.35,0,0,1.87,3.74,4,2.54,0,0-.3-.55,0-.84L0,0,9.43,8.49s.59-.33.93,0c0,0,.54-1.87-2.59-4.06,0,0,8.73-.07,8.42,8.4,0,0-4-3.94-4.24-1.76Z"/><path class="cls-1" d="M44.62,31.58c.59,0,3.93-.08,3,4.48l-3.08,2.31a2.64,2.64,0,0,1,0-.29l2.69-2C48,32.16,45.68,31.62,44.62,31.58Z"/><path class="cls-1" d="M45.38,21.06,44.17,31.18c-.14-3.25-.25-6.8-.26-10A2.52,2.52,0,0,0,45.38,21.06Z"/><path class="cls-1" d="M44.62,31.58c1.06,0,3.39.58,2.61,4.48l-2.69,2c-.11-1.79-.24-4-.35-6.5h.32l0,0Z"/><path class="cls-2" d="M44.8,42.06H39.64l4.92-3.69C44.69,40.63,44.8,42.06,44.8,42.06Z"/><path class="cls-2" d="M44.62,31.58h-.09l0,0Z"/><path class="cls-2" d="M44.54,38.08a2.64,2.64,0,0,0,0,.29l-4.92,3.69h-.41Z"/><path class="cls-2" d="M44.54,38.08l-5.31,4H28l8.71-16,7.42,5.23,0,.27h.07C44.3,34,44.43,36.29,44.54,38.08Z"/><path class="cls-2" d="M39.26,43.32c2.84,0,5.38.28,5.38.74,0,.83-6.2,1-8.31,1,2.41,0,7.9-.21,7.9-1C44.23,43.62,41.93,43.38,39.26,43.32Z"/><path class="cls-2" d="M44.18,31.34l.33.23h-.32A1.93,1.93,0,0,0,44.18,31.34Z"/><path class="cls-2" d="M44.12,31.59l0-.27,0,0a1.93,1.93,0,0,1,0,.24Z"/><path class="cls-2" d="M44.17,31.18c0,.06,0,.11,0,.16l0,0Z"/><path class="cls-2" d="M44.17,31.18l0,.14-7.42-5.23L43.89,13l-2.51,5.09s.66,2.65,2.53,3.09C43.92,24.38,44,27.93,44.17,31.18Z"/><path class="cls-1" d="M44.23,44.06c0,.78-5.49.95-7.9,1h-.68L38,43.31h1.29C41.93,43.38,44.23,43.62,44.23,44.06Z"/><path class="cls-2" d="M39.64,42.06,38,43.31h-.41l1.67-1.25Z"/><path class="cls-2" d="M38,43.31l-2.32,1.75h-.42l2.32-1.74Z"/><path class="cls-2" d="M38,43.31h0Z"/><path class="cls-2" d="M37.56,43.31h0Z"/><path class="cls-2" d="M31.23,44.06c.46-.46,3.25-.71,6.12-.74-2.73.06-5.27.3-5.71.74Z"/><path class="cls-2" d="M18.14,13,36.73,26.09,28,42.06H22.8l-5.24-3.93c.11-1.79.24-4.07.35-6.54.15-3.36.27-7.09.28-10.46,1.81-.49,2.45-3.07,2.45-3.07Z"/><path class="cls-1" d="M28,42.06H39.23l-1.67,1.25h-.21c-2.87,0-5.66.28-6.12.74H30.8c-.32-.32-1.73-.53-3.52-.64Z"/><path class="cls-2" d="M30.8,44.06h-.42a7.39,7.39,0,0,0-3.12-.62l0,0C29.07,43.53,30.48,43.74,30.8,44.06Z"/><path class="cls-2" d="M27.26,43.44l-.76,1.4-2-1.52h.19C25.58,43.34,26.47,43.38,27.26,43.44Z"/><path class="cls-2" d="M26.8,45.06h-.42l.12-.21Z"/><path class="cls-1" d="M24.48,43.32l2,1.52-.12.21c-1.78,0-8.58-.12-8.58-1,0-.44,2.3-.68,5-.74h1.72Z"/><path class="cls-1" d="M22.8,42.06H28l-.74,1.36c-.81-.06-1.7-.09-2.61-.1h-.2Z"/><path class="cls-2" d="M24.48,43.32h0Z"/><path class="cls-2" d="M22.8,42.06H17.3s.11-1.54.26-3.93Z"/><path class="cls-2" d="M17.8,44.06c0,.87,6.8,1,8.58,1h0s-9,0-9-1c0-.46,2.54-.71,5.38-.74C20.1,43.38,17.8,43.62,17.8,44.06Z"/><path class="cls-2" d="M44.32,12.88a61,61,0,0,0-.41,8.27c-1.87-.44-2.53-3.09-2.53-3.09L43.89,13,36.73,26.09,18.14,13l2.5,5.09s-.64,2.58-2.45,3.07a57.76,57.76,0,0,0-.41-8.26,1.5,1.5,0,0,1,1.43-1.74c2.15-.08,5.43-.77,6.09-4.07H36.8c.66,3.3,3.93,4,6.08,4.07A1.52,1.52,0,0,1,44.32,12.88Z"/><path class="cls-1" d="M16.64,21.06a2.53,2.53,0,0,0,1.55.07c0,3.37-.13,7.1-.28,10.46Z"/><path class="cls-1" d="M17.91,31.59c-.11,2.47-.24,4.75-.35,6.54L14.8,36.06C13.8,31.06,17.91,31.59,17.91,31.59Z"/><path class="cls-3" d="M22.76,43.32c-2.84,0-5.38.28-5.38.74,0,1,9,1,9,1"/><path class="cls-3" d="M30.8,44.06h-.42a7.39,7.39,0,0,0-3.12-.62c-.79-.06-1.68-.1-2.59-.12h-.19"/><path class="cls-3" d="M44.51,31.57h.11"/><path class="cls-3" d="M43.91,21.15a2.52,2.52,0,0,0,1.47-.09L44.17,31.18"/><path class="cls-3" d="M44.56,38.37l3.08-2.31c.91-4.56-2.43-4.52-3-4.48h-.09"/><path class="cls-3" d="M37.55,43.32l-2.32,1.74h.42L38,43.31l1.67-1.25"/><path class="cls-3" d="M22.8,42.06l1.67,1.25h0l2,1.52.3.22h-.42c-1.78,0-8.58-.12-8.58-1,0-.44,2.3-.68,5-.74h1.91c.91,0,1.8,0,2.61.1,1.79.11,3.2.32,3.52.64h.84c.44-.44,3-.68,5.71-.74h1.91c2.84,0,5.38.28,5.38.74,0,.83-6.2,1-8.31,1h-.68"/><path class="cls-3" d="M18.19,21.13a2.53,2.53,0,0,1-1.55-.07l1.27,10.53s-4.11-.53-3.11,4.47l2.76,2.07"/><path class="cls-4" d="M17.8,42.06h-.5s.11-1.54.26-3.93c.11-1.79.24-4.07.35-6.54.15-3.36.27-7.09.28-10.46a57.76,57.76,0,0,0-.41-8.26,1.5,1.5,0,0,1,1.43-1.74c2.15-.08,5.43-.77,6.09-4.07H36.8c.66,3.3,3.93,4,6.08,4.07a1.52,1.52,0,0,1,1.44,1.75,61,61,0,0,0-.41,8.27c0,3.23.12,6.78.26,10,0,.06,0,.11,0,.16a1.93,1.93,0,0,1,0,.24c.11,2.45.24,4.71.35,6.5a2.64,2.64,0,0,0,0,.29c.13,2.26.24,3.69.24,3.69h-.5"/><polyline class="cls-4" points="17.8 42.06 22.8 42.06 28.02 42.06 39.23 42.06 39.64 42.06 44.3 42.06"/><path class="cls-5" d="M13.92,14.57a5,5,0,0,1-2.21,4.91c-2.83,1.93-2.83,4.24-2.83,4.24L9.4,29s3.47-3.22,3.21-4.45,2.83-4.19,2.83-4.19A11.35,11.35,0,0,0,16,16.69Z"/><path class="cls-5" d="M48.8,14.57A5,5,0,0,0,51,19.48c2.83,1.93,2.83,4.24,2.83,4.24L53.32,29s-3.47-3.22-3.21-4.45-2.83-4.19-2.83-4.19a11.35,11.35,0,0,1-.61-3.69Z"/></g></g></svg>